<svg width="732" height="397" viewBox="0 0 732 397" fill="none" xmlns="http://www.w3.org/2000/svg"><path d="M236.422 395.748c-.789.456-1.824.685-2.859.686-1.04.001-2.08-.228-2.873-.686-.791-.457-1.187-1.056-1.187-1.655V346.2h8.107v47.893c0 .599-.396 1.198-1.188 1.655z" fill="#FAC864" stroke="#000" stroke-width=".566" stroke-linecap="round" stroke-linejoin="round"/><path d="M230.663 344.533c-1.595.92-1.595 2.413 0 3.334 1.594.92 4.18.92 5.774 0 1.595-.921 1.595-2.414 0-3.334-1.594-.921-4.18-.921-5.774 0z" fill="#FFE598" stroke="#000" stroke-width=".566" stroke-linecap="round" stroke-linejoin="round"/><path d="M117.223 327.089c-1.583.914-4.149.914-5.732 0-.792-.456-1.187-1.055-1.187-1.654v-47.894h8.107l-.001 47.894c0 .599-.395 1.198-1.187 1.654z" fill="#FAC864" stroke="#000" stroke-width=".566" stroke-linecap="round" stroke-linejoin="round"/><path d="M111.463 275.874c-1.595.921-1.595 2.413 0 3.334 1.595.921 4.18.921 5.775 0 1.594-.921 1.594-2.413 0-3.334-1.595-.921-4.18-.921-5.775 0z" fill="#FFE598" stroke="#000" stroke-width=".566" stroke-linecap="round" stroke-linejoin="round"/><path d="M156.989 349.897c-1.583.914-4.15.914-5.733 0-.791-.457-1.187-1.056-1.187-1.655v-47.893h8.107v47.893c0 .599-.396 1.198-1.187 1.655z" fill="#FAC864" stroke="#000" stroke-width=".566" stroke-linecap="round" stroke-linejoin="round"/><path d="M151.229 298.682c-1.595.92-1.595 2.413 0 3.334 1.594.92 4.18.92 5.774 0 1.595-.921 1.595-2.414 0-3.334-1.594-.921-4.18-.921-5.774 0z" fill="#FFE598" stroke="#000" stroke-width=".566" stroke-linecap="round" stroke-linejoin="round"/><path d="M37.789 281.238c-1.583.914-4.15.914-5.733 0-.791-.457-1.187-1.055-1.187-1.654V231.69h8.107v47.894c0 .599-.396 1.197-1.187 1.654z" fill="#FAC864" stroke="#000" stroke-width=".566" stroke-linecap="round" stroke-linejoin="round"/><path d="M32.029 230.023c-1.595.921-1.595 2.413 0 3.334 1.594.921 4.18.921 5.774 0 1.595-.921 1.595-2.413 0-3.334-1.594-.921-4.18-.921-5.774 0z" fill="#FFE598" stroke="#000" stroke-width=".566" stroke-linecap="round" stroke-linejoin="round"/><path d="M196.695 372.941c-1.583.914-4.15.914-5.733 0-.791-.457-1.187-1.056-1.187-1.655v-47.894h8.107v47.894c0 .599-.396 1.198-1.187 1.655z" fill="#FAC864" stroke="#000" stroke-width=".566" stroke-linecap="round" stroke-linejoin="round"/><path d="M190.934 321.725c-1.594.921-1.594 2.414 0 3.334 1.595.921 4.18.921 5.775 0 1.594-.92 1.594-2.413 0-3.334-1.595-.92-4.18-.92-5.775 0z" fill="#FFE598" stroke="#000" stroke-width=".566" stroke-linecap="round" stroke-linejoin="round"/><path d="M77.495 304.282c-1.583.914-4.15.914-5.733 0-.791-.457-1.187-1.056-1.187-1.655v-47.893h8.107v47.893c0 .599-.396 1.198-1.187 1.655z" fill="#FAC864" stroke="#000" stroke-width=".566" stroke-linecap="round" stroke-linejoin="round"/><path d="M71.735 253.067c-1.595.92-1.595 2.413 0 3.334 1.595.92 4.18.92 5.775 0 1.594-.921 1.594-2.414 0-3.334-1.595-.921-4.18-.921-5.775 0z" fill="#FFE598" stroke="#000" stroke-width=".566" stroke-linecap="round" stroke-linejoin="round"/><path d="M220.801 354.357v-11.571l40.268 3.926v11.667l-16.74 9.657-23.528-13.679z" fill="#505050" stroke="#000" stroke-width=".906" stroke-linecap="round" stroke-linejoin="round"/><path d="M244.402 356.281v11.574" stroke="#000" stroke-width=".906"/><path transform="matrix(.86603 -.5 .86603 .5 220.861 342.738)" fill="#B3B3B3" stroke="#000" stroke-width=".906" stroke-linecap="round" stroke-linejoin="round" d="M0 0h19.299v27.099H0z"/><path d="M371.2 317.104c-1.583.914-4.149.914-5.732 0-.792-.457-1.187-1.056-1.187-1.655v-47.894h8.107l-.001 47.894c0 .599-.395 1.198-1.187 1.655z" fill="#FAC864" stroke="#000" stroke-width=".566" stroke-linecap="round" stroke-linejoin="round"/><path d="M365.439 265.888c-1.594.921-1.594 2.414 0 3.334 1.595.921 4.18.921 5.775 0 1.594-.92 1.594-2.413 0-3.334-1.595-.92-4.18-.92-5.775 0z" fill="#FFE598" stroke="#000" stroke-width=".566" stroke-linecap="round" stroke-linejoin="round"/><path d="M180.504 331.018l.001-11.571 40.268 3.926v11.667l-16.74 9.656-23.529-13.678z" fill="#505050" stroke="#000" stroke-width=".906" stroke-linecap="round" stroke-linejoin="round"/><path d="M204.106 332.942v11.574" stroke="#000" stroke-width=".906"/><path transform="matrix(.86603 -.5 .86603 .5 180.564 319.399)" fill="#B3B3B3" stroke="#000" stroke-width=".906" stroke-linecap="round" stroke-linejoin="round" d="M0 0h19.299v27.099H0z"/><path d="M140.235 307.679l.001-11.571 40.268 3.926v11.667l-16.74 9.656-23.529-13.678z" fill="#505050" stroke="#000" stroke-width=".906" stroke-linecap="round" stroke-linejoin="round"/><path d="M163.836 309.603v11.574" stroke="#000" stroke-width=".906"/><path transform="matrix(.86603 -.5 .86603 .5 140.296 296.06)" fill="#B3B3B3" stroke="#000" stroke-width=".906" stroke-linecap="round" stroke-linejoin="round" d="M0 0h19.299v27.099H0z"/><path d="M99.968 282.449v-11.571l40.268 3.926v11.667l-16.74 9.656-23.528-13.678z" fill="#505050" stroke="#000" stroke-width=".906" stroke-linecap="round" stroke-linejoin="round"/><path d="M123.57 284.373v11.574" stroke="#000" stroke-width=".906"/><path transform="matrix(.86603 -.5 .86603 .5 100.029 270.83)" fill="#B3B3B3" stroke="#000" stroke-width=".906" stroke-linecap="round" stroke-linejoin="round" d="M0 0h19.299v27.099H0z"/><path d="M59.671 259.11v-11.571l40.269 3.926v11.667l-16.74 9.656L59.67 259.11z" fill="#505050" stroke="#000" stroke-width=".906" stroke-linecap="round" stroke-linejoin="round"/><path d="M83.273 261.033v11.575" stroke="#000" stroke-width=".906"/><path transform="matrix(.86603 -.5 .86603 .5 59.733 247.491)" fill="#B3B3B3" stroke="#000" stroke-width=".906" stroke-linecap="round" stroke-linejoin="round" d="M0 0h19.299v27.099H0z"/><path d="M19.492 235.77v-11.571l40.269 3.927v11.666l-16.74 9.657-23.529-13.679z" fill="#505050" stroke="#000" stroke-width=".906" stroke-linecap="round" stroke-linejoin="round"/><path d="M43.094 237.694v11.575" stroke="#000" stroke-width=".906"/><path transform="matrix(.86603 -.5 .86603 .5 19.554 224.151)" fill="#B3B3B3" stroke="#000" stroke-width=".906" stroke-linecap="round" stroke-linejoin="round" d="M0 0h19.299v27.099H0z"/><path d="M246.332 358.559L7.844 220.868c-2.22-1.282-3.303-2.972-3.247-4.653V201.03l393.386 61.036v15.481c-.06 1.593-1.142 3.175-3.247 4.39l-132.714 76.622c-4.333 2.502-11.357 2.502-15.69 0z" fill="#55A398" stroke="#000" stroke-width=".906" stroke-linecap="round" stroke-linejoin="round"/><rect width="171.362" height="293.499" rx="9.059" transform="matrix(-.86603 .5 .86603 .5 148.404 115)" fill="#BDDCD8" stroke="#000" stroke-width=".906" stroke-linecap="round" stroke-linejoin="round"/><path transform="matrix(-.86603 -.5 -.86603 .5 198.164 186.122)" stroke="#000" stroke-width=".906" stroke-linecap="round" stroke-linejoin="round" d="M0 0h95.781v73.783H0z"/><path transform="matrix(-.86603 -.5 -.86603 .5 198.164 186.122)" stroke="#000" stroke-width=".906" stroke-linecap="round" stroke-linejoin="round" d="M0 0h95.781v73.783H0z"/><path transform="matrix(-.86603 -.5 -.86603 .5 180.061 185.23)" fill="#E5E5E5" stroke="#000" stroke-width=".906" stroke-linecap="round" stroke-linejoin="round" d="M0 0h79.128v5.028H0z"/><path transform="matrix(-.86603 -.5 -.86603 .5 162.689 195.156)" fill="#E5E5E5" stroke="#000" stroke-width=".906" stroke-linecap="round" stroke-linejoin="round" d="M0 0h79.128v5.028H0z"/><path transform="matrix(-.86603 -.5 -.86603 .5 145.377 205.083)" fill="#E5E5E5" stroke="#000" stroke-width=".906" stroke-linecap="round" stroke-linejoin="round" d="M0 0h79.128v5.028H0z"/><path transform="matrix(-.86603 -.5 -.86603 .5 171.435 190.193)" fill="#E5E5E5" stroke="#000" stroke-width=".906" stroke-linecap="round" stroke-linejoin="round" d="M0 0h79.128v5.028H0z"/><path transform="matrix(-.86603 -.5 -.86603 .5 154.063 200.12)" fill="#E5E5E5" stroke="#000" stroke-width=".906" stroke-linecap="round" stroke-linejoin="round" d="M0 0h79.128v5.028H0z"/><path transform="matrix(-.86603 -.5 -.86603 .5 136.692 210.046)" fill="#E5E5E5" stroke="#000" stroke-width=".906" stroke-linecap="round" stroke-linejoin="round" d="M0 0h79.128v5.028H0z"/><path d="M118.121 207.558l-61.492-35.502v-10.082l114.766 4.815V176.8l-53.274 30.758z" fill="#C4C4C4"/><path d="M118.121 207.558l-61.492-35.502v-10.082l114.766 4.815V176.8l-53.274 30.758zm0 0v-10.014" stroke="#000" stroke-width=".906" stroke-linecap="round" stroke-linejoin="round"/><path transform="matrix(-.86603 -.5 -.86603 .5 171.395 166.751)" fill="#E5E5E5" stroke="#000" stroke-width=".906" stroke-linecap="round" stroke-linejoin="round" d="M0 0h71.004v61.516H0z"/><path transform="matrix(-.86603 -.5 -.86603 .5 266.212 247.163)" fill="#E5E5E5" stroke="#000" stroke-width=".906" stroke-linecap="round" stroke-linejoin="round" d="M0 0h32.855v32.2H0z"/><path d="M238.042 260.176l-23.026-13.295v-2.836h46.053v2.836l-23.027 13.295z" fill="#464646"/><path d="M238.042 260.176l-23.026-13.295v-2.836h46.053v2.836l-23.027 13.295zm0 0v-2.807" stroke="#000" stroke-width=".906" stroke-linecap="round" stroke-linejoin="round"/><path transform="matrix(-.86603 -.5 -.86603 .5 261.069 244.045)" fill="#464646" stroke="#000" stroke-width=".906" stroke-linecap="round" stroke-linejoin="round" d="M0 0h26.589v26.589H0z"/><rect width="19.73" height="23.608" rx="9.059" transform="matrix(-.86603 .5 .86603 .5 33.315 200.186)" fill="#55A398" stroke="#000" stroke-width=".906" stroke-linecap="round" stroke-linejoin="round"/><rect width="19.73" height="22.16" rx="9.059" transform="matrix(-.86603 .5 .86603 .5 73.427 223.345)" fill="#55A398" stroke="#000" stroke-width=".906" stroke-linecap="round" stroke-linejoin="round"/><rect width="19.73" height="22.363" rx="9.059" transform="matrix(-.86603 .5 .86603 .5 112.643 245.986)" fill="#55A398" stroke="#000" stroke-width=".906" stroke-linecap="round" stroke-linejoin="round"/><rect width="19.73" height="22.365" rx="9.059" transform="matrix(-.86603 .5 .86603 .5 152.542 269.021)" fill="#55A398" stroke="#000" stroke-width=".906" stroke-linecap="round" stroke-linejoin="round"/><rect width="19.73" height="22.793" rx="9.059" transform="matrix(-.86603 .5 .86603 .5 192.738 292.229)" fill="#55A398" stroke="#000" stroke-width=".906" stroke-linecap="round" stroke-linejoin="round"/><rect width="19.73" height="21.665" rx="9.059" transform="matrix(-.86603 .5 .86603 .5 233.254 315.621)" fill="#55A398" stroke="#000" stroke-width=".906" stroke-linecap="round" stroke-linejoin="round"/><path d="M238.355 328.304c-2.657 1.534-6.965 1.534-9.622 0-1.656-.956-2.28-2.282-1.872-3.517l4.606-10.016h4.136l4.624 10.016c.408 1.235-.216 2.561-1.872 3.517z" fill="#D9D9D9" stroke="#000" stroke-width=".906" stroke-linecap="round" stroke-linejoin="round"/><circle r="1.728" transform="matrix(-.86603 -.5 -.86603 .5 233.544 314.786)" fill="#D9D9D9" stroke="#000" stroke-width=".906" stroke-linecap="round" stroke-linejoin="round"/><path d="M198.629 305.024c-2.657 1.534-6.965 1.534-9.622 0-1.656-.956-2.28-2.282-1.872-3.517l4.606-10.016h4.136l4.624 10.016c.408 1.235-.216 2.561-1.872 3.517z" fill="#D9D9D9" stroke="#000" stroke-width=".906" stroke-linecap="round" stroke-linejoin="round"/><circle r="1.728" transform="matrix(-.86603 -.5 -.86603 .5 193.819 291.506)" fill="#D9D9D9" stroke="#000" stroke-width=".906" stroke-linecap="round" stroke-linejoin="round"/><path d="M158.924 281.744c-2.657 1.534-6.965 1.534-9.622 0-1.656-.956-2.28-2.282-1.872-3.517l4.606-10.016h4.136l4.624 10.016c.408 1.235-.216 2.561-1.872 3.517z" fill="#D9D9D9" stroke="#000" stroke-width=".906" stroke-linecap="round" stroke-linejoin="round"/><circle r="1.728" transform="matrix(-.86603 -.5 -.86603 .5 154.113 268.226)" fill="#D9D9D9" stroke="#000" stroke-width=".906" stroke-linecap="round" stroke-linejoin="round"/><path d="M119.159 258.7c-2.658 1.534-6.966 1.534-9.623 0-1.656-.956-2.28-2.282-1.871-3.517l4.605-10.016h4.137l4.623 10.016c.409 1.235-.215 2.561-1.871 3.517z" fill="#D9D9D9" stroke="#000" stroke-width=".906" stroke-linecap="round" stroke-linejoin="round"/><circle r="1.728" transform="matrix(-.86603 -.5 -.86603 .5 114.348 245.182)" fill="#D9D9D9" stroke="#000" stroke-width=".906" stroke-linecap="round" stroke-linejoin="round"/><path d="M79.453 235.657c-2.658 1.534-6.966 1.534-9.623 0-1.656-.957-2.28-2.283-1.871-3.518l4.605-10.015h4.137l4.623 10.015c.408 1.235-.215 2.561-1.871 3.518z" fill="#D9D9D9" stroke="#000" stroke-width=".906" stroke-linecap="round" stroke-linejoin="round"/><circle r="1.728" transform="matrix(-.86603 -.5 -.86603 .5 74.641 222.138)" fill="#D9D9D9" stroke="#000" stroke-width=".906" stroke-linecap="round" stroke-linejoin="round"/><path d="M39.746 213.322c-2.657 1.534-6.965 1.534-9.622 0-1.656-.956-2.28-2.283-1.871-3.518l4.605-10.015h4.136l4.624 10.015c.408 1.235-.215 2.562-1.872 3.518z" fill="#D9D9D9" stroke="#000" stroke-width=".906" stroke-linecap="round" stroke-linejoin="round"/><circle r="1.728" transform="matrix(-.86603 -.5 -.86603 .5 34.935 199.804)" fill="#D9D9D9" stroke="#000" stroke-width=".906" stroke-linecap="round" stroke-linejoin="round"/><rect width="19.73" height="23.608" rx="9.059" transform="matrix(-.86603 .5 .86603 .5 164.44 124.024)" fill="#55A398" stroke="#000" stroke-width=".906" stroke-linecap="round" stroke-linejoin="round"/><rect width="19.73" height="22.16" rx="9.059" transform="matrix(-.86603 .5 .86603 .5 204.552 147.182)" fill="#55A398" stroke="#000" stroke-width=".906" stroke-linecap="round" stroke-linejoin="round"/><rect width="19.73" height="22.363" rx="9.059" transform="matrix(-.86603 .5 .86603 .5 243.768 169.823)" fill="#55A398" stroke="#000" stroke-width=".906" stroke-linecap="round" stroke-linejoin="round"/><rect width="19.73" height="22.365" rx="9.059" transform="matrix(-.86603 .5 .86603 .5 283.667 192.859)" fill="#55A398" stroke="#000" stroke-width=".906" stroke-linecap="round" stroke-linejoin="round"/><rect width="19.73" height="22.793" rx="9.059" transform="matrix(-.86603 .5 .86603 .5 323.862 216.066)" fill="#55A398" stroke="#000" stroke-width=".906" stroke-linecap="round" stroke-linejoin="round"/><rect width="19.73" height="21.665" rx="9.059" transform="matrix(-.86603 .5 .86603 .5 364.379 239.458)" fill="#55A398" stroke="#000" stroke-width=".906" stroke-linecap="round" stroke-linejoin="round"/><path d="M369.478 252.142c-2.657 1.534-6.965 1.534-9.622 0-1.656-.956-2.28-2.283-1.872-3.518l4.606-10.015h4.136l4.624 10.015c.408 1.235-.216 2.562-1.872 3.518z" fill="#D9D9D9" stroke="#000" stroke-width=".906" stroke-linecap="round" stroke-linejoin="round"/><circle r="1.728" transform="matrix(-.86603 -.5 -.86603 .5 364.668 238.624)" fill="#D9D9D9" stroke="#000" stroke-width=".906" stroke-linecap="round" stroke-linejoin="round"/><path d="M329.754 228.862c-2.657 1.534-6.965 1.534-9.622 0-1.656-.956-2.28-2.283-1.872-3.518l4.606-10.015h4.136l4.624 10.015c.408 1.235-.216 2.562-1.872 3.518z" fill="#D9D9D9" stroke="#000" stroke-width=".906" stroke-linecap="round" stroke-linejoin="round"/><circle r="1.728" transform="matrix(-.86603 -.5 -.86603 .5 324.944 215.344)" fill="#D9D9D9" stroke="#000" stroke-width=".906" stroke-linecap="round" stroke-linejoin="round"/><path d="M290.048 205.582c-2.657 1.534-6.965 1.534-9.622 0-1.656-.957-2.28-2.283-1.872-3.518l4.606-10.015h4.136l4.624 10.015c.408 1.235-.216 2.561-1.872 3.518z" fill="#D9D9D9" stroke="#000" stroke-width=".906" stroke-linecap="round" stroke-linejoin="round"/><circle r="1.728" transform="matrix(-.86603 -.5 -.86603 .5 285.238 192.063)" fill="#D9D9D9" stroke="#000" stroke-width=".906" stroke-linecap="round" stroke-linejoin="round"/><path d="M250.284 182.538c-2.658 1.534-6.966 1.534-9.623 0-1.656-.956-2.28-2.283-1.871-3.518l4.605-10.015h4.137l4.623 10.015c.409 1.235-.215 2.562-1.871 3.518z" fill="#D9D9D9" stroke="#000" stroke-width=".906" stroke-linecap="round" stroke-linejoin="round"/><circle r="1.728" transform="matrix(-.86603 -.5 -.86603 .5 245.473 169.02)" fill="#D9D9D9" stroke="#000" stroke-width=".906" stroke-linecap="round" stroke-linejoin="round"/><path d="M210.577 159.494c-2.658 1.534-6.966 1.534-9.623 0-1.656-.956-2.28-2.282-1.871-3.518l4.605-10.015h4.137l4.623 10.015c.408 1.236-.215 2.562-1.871 3.518z" fill="#D9D9D9" stroke="#000" stroke-width=".906" stroke-linecap="round" stroke-linejoin="round"/><circle r="1.728" transform="matrix(-.86603 -.5 -.86603 .5 205.766 145.976)" fill="#D9D9D9" stroke="#000" stroke-width=".906" stroke-linecap="round" stroke-linejoin="round"/><path d="M170.871 137.159c-2.657 1.534-6.965 1.534-9.622 0-1.656-.956-2.28-2.282-1.872-3.517l4.606-10.015h4.136l4.624 10.015c.408 1.235-.216 2.561-1.872 3.517z" fill="#D9D9D9" stroke="#000" stroke-width=".906" stroke-linecap="round" stroke-linejoin="round"/><circle r="1.728" transform="matrix(-.86603 -.5 -.86603 .5 166.06 123.641)" fill="#D9D9D9" stroke="#000" stroke-width=".906" stroke-linecap="round" stroke-linejoin="round"/><path d="M327.964 262.134v-7.366l25.635 2.5v7.427l-10.657 6.147-14.978-8.708z" fill="#C4C4C4" stroke="#000" stroke-width=".906" stroke-linecap="round" stroke-linejoin="round"/><path d="M342.99 263.359v7.368" stroke="#000" stroke-width=".906"/><path transform="matrix(.86603 -.5 .86603 .5 328.004 254.738)" fill="#D9D9D9" stroke="#000" stroke-width=".906" stroke-linecap="round" stroke-linejoin="round" d="M0 0h12.286v17.251H0z"/><path d="M343.503 257.49c-.75.433-1.733.65-2.717.651-.988.001-1.976-.216-2.73-.651-.752-.435-1.128-1.004-1.128-1.573l.002-2.282h7.703l-.002 2.282c0 .569-.376 1.138-1.128 1.573z" fill="#000" stroke="#000" stroke-width=".566" stroke-linecap="round" stroke-linejoin="round"/><path d="M338.031 252.051c-1.515.875-1.515 2.293 0 3.168 1.516.875 3.972.875 5.487 0 1.516-.875 1.516-2.293 0-3.168-1.515-.874-3.971-.874-5.487 0z" fill="#505050" stroke="#000" stroke-width=".566" stroke-linecap="round" stroke-linejoin="round"/><path d="M248.255 308.635v-7.366l25.635 2.5v7.427l-10.657 6.147-14.978-8.708z" fill="#C4C4C4" stroke="#000" stroke-width=".906" stroke-linecap="round" stroke-linejoin="round"/><path d="M263.281 309.86v7.368" stroke="#000" stroke-width=".906"/><path transform="matrix(.86603 -.5 .86603 .5 248.294 301.239)" fill="#D9D9D9" stroke="#000" stroke-width=".906" stroke-linecap="round" stroke-linejoin="round" d="M0 0h12.286v17.251H0z"/><path d="M263.795 303.991c-.75.433-1.733.65-2.717.651-.988.001-1.976-.216-2.73-.651-.752-.434-1.128-1.003-1.128-1.573l.002-2.282h7.703l-.002 2.282c0 .57-.376 1.139-1.128 1.573z" fill="#000" stroke="#000" stroke-width=".566" stroke-linecap="round" stroke-linejoin="round"/><path d="M258.324 298.553c-1.515.874-1.515 2.293 0 3.167 1.515.875 3.972.875 5.487 0 1.515-.874 1.515-2.293 0-3.167-1.515-.875-3.972-.875-5.487 0z" fill="#505050" stroke="#000" stroke-width=".566" stroke-linecap="round" stroke-linejoin="round"/><path d="M310.592 314.377l-57.452-33.17v-14.818l93.57 12.29v14.846l-36.118 20.852z" fill="#C4C4C4"/><path d="M310.592 314.377l-57.452-33.17v-14.818l93.57 12.29v14.846l-36.118 20.852zm0 0V299.3" stroke="#000" stroke-width=".906" stroke-linecap="round" stroke-linejoin="round"/><path d="M346.709 293.546l-36.117 20.852v-14.9l36.117-20.799v14.847z" fill="#505050" stroke="#000" stroke-width=".906" stroke-linecap="round" stroke-linejoin="round"/><path d="M343.668 292.217l-33.043 19.077v-13.632l33.043-17.511v12.066z" fill="#000" stroke="#000" stroke-width=".906" stroke-linecap="round" stroke-linejoin="round"/><path transform="matrix(-.86603 .5 .86603 .5 289.257 245.522)" fill="#E5E5E5" stroke="#000" stroke-width=".906" stroke-linecap="round" stroke-linejoin="round" d="M0 0h41.705v66.341H0z"/><rect width="3.489" height="13.846" rx="1.745" transform="matrix(.86603 -.5 .86603 .5 313.595 272.438)" fill="#505050" stroke="#000" stroke-width=".906" stroke-linecap="round" stroke-linejoin="round"/><rect width="3.489" height="13.846" rx="1.745" transform="matrix(.86603 -.5 .86603 .5 297.819 281.398)" fill="#505050" stroke="#000" stroke-width=".906" stroke-linecap="round" stroke-linejoin="round"/><path transform="matrix(-.86603 -.5 -.86603 .5 206.877 204.382)" fill="#E5E5E5" stroke="#000" stroke-width=".906" stroke-linecap="round" stroke-linejoin="round" d="M0 0h6.653v46.848H0z"/><path transform="matrix(-.86603 -.5 -.86603 .5 219.325 211.569)" fill="#E5E5E5" stroke="#000" stroke-width=".906" stroke-linecap="round" stroke-linejoin="round" d="M0 0h7.562v46.848H0z"/><path transform="matrix(-.86603 -.5 -.86603 .5 232.574 219.219)" fill="#E5E5E5" stroke="#000" stroke-width=".906" stroke-linecap="round" stroke-linejoin="round" d="M0 0h7.671v46.848H0z"/><path transform="matrix(-.86603 -.5 -.86603 .5 239.618 219.414)" stroke="#000" stroke-width=".906" stroke-linecap="round" stroke-linejoin="round" d="M0 0h44.548v55.192H0z"/><path transform="matrix(-.86603 -.5 -.86603 .5 301.624 231.688)" stroke="#000" stroke-width=".906" stroke-linecap="round" stroke-linejoin="round" d="M0 0h92.62v102.243H0z"/><circle r="2.791" transform="matrix(-.86603 .5 .86603 .5 118.445 189.285)" fill="#7C7C7C" stroke="#000" stroke-width=".906" stroke-linecap="round" stroke-linejoin="round"/><path d="M201.73 236.915l-31.21-18.019v-8.294l52.126 5.968v8.269l-20.916 12.076z" fill="#464646"/><path d="M201.73 236.915l-31.21-18.019v-8.294l52.126 5.968v8.269l-20.916 12.076zm0 0v-8.144" stroke="#000" stroke-width=".906" stroke-linecap="round" stroke-linejoin="round"/><path transform="matrix(-.86603 -.5 -.86603 .5 222.646 216.562)" fill="#464646" stroke="#000" stroke-width=".906" stroke-linecap="round" stroke-linejoin="round" d="M0 0h36.038v24.152H0z"/><path d="M549.945 215.194c.605.35 1.398.525 2.192.525.796.001 1.594-.174 2.202-.525.606-.35.91-.809.91-1.268v-36.711h-6.214v36.711c0 .459.303.918.91 1.268z" fill="#FAC864" stroke="#000" stroke-width=".566" stroke-linecap="round" stroke-linejoin="round"/><path d="M554.359 175.937c1.222.706 1.222 1.85 0 2.556-1.223.706-3.204.706-4.427 0-1.222-.706-1.222-1.85 0-2.556 1.223-.705 3.204-.705 4.427 0z" fill="#FFE598" stroke="#000" stroke-width=".566" stroke-linecap="round" stroke-linejoin="round"/><path d="M641.308 162.567c1.213.701 3.18.701 4.394 0 .606-.35.91-.809.91-1.268l-.001-36.711h-6.214l.001 36.711c0 .459.303.918.91 1.268z" fill="#FAC864" stroke="#000" stroke-width=".566" stroke-linecap="round" stroke-linejoin="round"/><path d="M645.723 123.311c1.222.705 1.222 1.849 0 2.555-1.222.706-3.204.706-4.426 0-1.223-.706-1.223-1.85 0-2.555 1.222-.706 3.204-.706 4.426 0z" fill="#FFE598" stroke="#000" stroke-width=".566" stroke-linecap="round" stroke-linejoin="round"/><path d="M610.829 180.049c1.213.701 3.181.701 4.394 0 .607-.35.91-.809.91-1.268V142.07h-6.214v36.711c0 .459.303.918.91 1.268z" fill="#FAC864" stroke="#000" stroke-width=".566" stroke-linecap="round" stroke-linejoin="round"/><path d="M615.245 140.792c1.223.706 1.223 1.85 0 2.556-1.222.705-3.204.705-4.426 0-1.222-.706-1.222-1.85 0-2.556 1.222-.705 3.204-.705 4.426 0z" fill="#FFE598" stroke="#000" stroke-width=".566" stroke-linecap="round" stroke-linejoin="round"/><path d="M702.194 127.422c1.214.7 3.181.7 4.394 0 .607-.35.91-.809.91-1.269v-36.71h-6.214v36.71c0 .46.304.919.91 1.269z" fill="#FAC864" stroke="#000" stroke-width=".566" stroke-linecap="round" stroke-linejoin="round"/><path d="M706.61 88.165c1.222.706 1.222 1.85 0 2.556-1.223.705-3.204.705-4.427 0-1.222-.706-1.222-1.85 0-2.556 1.223-.706 3.204-.706 4.427 0z" fill="#FFE598" stroke="#000" stroke-width=".566" stroke-linecap="round" stroke-linejoin="round"/><path d="M580.393 197.712c1.213.7 3.181.7 4.394 0 .607-.35.91-.809.91-1.268v-36.711h-6.214v36.711c0 .459.303.918.91 1.268z" fill="#FAC864" stroke="#000" stroke-width=".566" stroke-linecap="round" stroke-linejoin="round"/><path d="M584.809 158.455c1.222.706 1.222 1.85 0 2.556-1.223.705-3.204.705-4.426 0-1.223-.706-1.223-1.85 0-2.556 1.222-.706 3.203-.706 4.426 0z" fill="#FFE598" stroke="#000" stroke-width=".566" stroke-linecap="round" stroke-linejoin="round"/><path d="M671.76 145.085c1.214.7 3.181.7 4.394 0 .607-.35.91-.809.91-1.268v-36.711h-6.214v36.711c0 .459.304.918.91 1.268z" fill="#FAC864" stroke="#000" stroke-width=".566" stroke-linecap="round" stroke-linejoin="round"/><path d="M676.176 105.828c1.222.706 1.222 1.85 0 2.556-1.222.705-3.204.705-4.426 0-1.223-.706-1.223-1.85 0-2.556 1.222-.705 3.204-.705 4.426 0z" fill="#FFE598" stroke="#000" stroke-width=".566" stroke-linecap="round" stroke-linejoin="round"/><path d="M561.918 183.468v-8.869l-30.866 3.009v8.943l12.832 7.401 18.034-10.484z" fill="#505050" stroke="#000" stroke-width=".906" stroke-linecap="round" stroke-linejoin="round"/><path d="M543.825 184.943v8.871" stroke="#000" stroke-width=".906"/><path transform="matrix(-.86603 -.5 -.86603 .5 561.87 174.562)" fill="#B3B3B3" stroke="#000" stroke-width=".906" stroke-linecap="round" stroke-linejoin="round" d="M0 0h14.793v20.771H0z"/><path d="M446.638 154.913c1.213.701 3.18.701 4.394 0 .606-.35.91-.809.91-1.268l-.001-36.711h-6.213v36.711c0 .459.303.918.91 1.268z" fill="#FAC864" stroke="#000" stroke-width=".566" stroke-linecap="round" stroke-linejoin="round"/><path d="M451.053 115.656c1.222.706 1.222 1.85 0 2.556s-3.204.706-4.426 0c-1.223-.706-1.223-1.85 0-2.556 1.222-.705 3.204-.705 4.426 0z" fill="#FFE598" stroke="#000" stroke-width=".566" stroke-linecap="round" stroke-linejoin="round"/><path d="M592.804 165.578v-8.869l-30.865 3.01-.001 8.942 12.832 7.402 18.034-10.485z" fill="#505050" stroke="#000" stroke-width=".906" stroke-linecap="round" stroke-linejoin="round"/><path d="M574.711 167.053v8.872" stroke="#000" stroke-width=".906"/><path transform="matrix(-.86603 -.5 -.86603 .5 592.756 156.672)" fill="#B3B3B3" stroke="#000" stroke-width=".906" stroke-linecap="round" stroke-linejoin="round" d="M0 0h14.793v20.771H0z"/><path d="M623.672 147.69v-8.87l-30.866 3.01v8.943l12.832 7.401 18.034-10.484z" fill="#505050" stroke="#000" stroke-width=".906" stroke-linecap="round" stroke-linejoin="round"/><path d="M605.581 149.165v8.871" stroke="#000" stroke-width=".906"/><path transform="matrix(-.86603 -.5 -.86603 .5 623.624 138.784)" fill="#B3B3B3" stroke="#000" stroke-width=".906" stroke-linecap="round" stroke-linejoin="round" d="M0 0h14.793v20.771H0z"/><path d="M654.538 128.35v-8.869l-30.866 3.01v8.942l12.832 7.402 18.034-10.485z" fill="#505050" stroke="#000" stroke-width=".906" stroke-linecap="round" stroke-linejoin="round"/><path d="M636.446 129.825v8.872" stroke="#000" stroke-width=".906"/><path transform="matrix(-.86603 -.5 -.86603 .5 654.491 119.444)" fill="#B3B3B3" stroke="#000" stroke-width=".906" stroke-linecap="round" stroke-linejoin="round" d="M0 0h14.793v20.771H0z"/><path d="M685.424 110.46v-8.869l-30.866 3.009v8.943l12.832 7.402 18.034-10.485z" fill="#505050" stroke="#000" stroke-width=".906" stroke-linecap="round" stroke-linejoin="round"/><path d="M667.331 111.935v8.872" stroke="#000" stroke-width=".906"/><path transform="matrix(-.86603 -.5 -.86603 .5 685.376 101.554)" fill="#B3B3B3" stroke="#000" stroke-width=".906" stroke-linecap="round" stroke-linejoin="round" d="M0 0h14.793v20.771H0z"/><path d="M716.221 92.57v-8.869l-30.866 3.01v8.943l12.831 7.401 18.035-10.484z" fill="#505050" stroke="#000" stroke-width=".906" stroke-linecap="round" stroke-linejoin="round"/><path d="M698.128 94.045v8.872" stroke="#000" stroke-width=".906"/><path transform="matrix(-.86603 -.5 -.86603 .5 716.173 83.665)" fill="#B3B3B3" stroke="#000" stroke-width=".906" stroke-linecap="round" stroke-linejoin="round" d="M0 0h14.793v20.771H0z"/><path d="M542.347 186.689l182.801-105.54c1.703-.984 2.532-2.28 2.49-3.567v-11.64l-301.532 46.785v11.866c.046 1.22.876 2.433 2.489 3.364l101.726 58.732c3.321 1.917 8.705 1.917 12.026 0z" fill="#5E6FDB" stroke="#000" stroke-width=".906" stroke-linecap="round" stroke-linejoin="round"/><rect width="131.35" height="224.967" rx="9.059" transform="matrix(.86603 .5 -.86603 .5 617.41 0)" fill="#B0B8ED" stroke="#000" stroke-width=".906" stroke-linecap="round" stroke-linejoin="round"/><path transform="matrix(.86603 -.5 .86603 .5 579.269 54.515)" stroke="#000" stroke-width=".906" stroke-linecap="round" stroke-linejoin="round" d="M0 0h73.416v56.555H0z"/><path transform="matrix(.86603 -.5 .86603 .5 579.269 54.515)" stroke="#000" stroke-width=".906" stroke-linecap="round" stroke-linejoin="round" d="M0 0h73.416v56.555H0z"/><path transform="matrix(.86603 -.5 .86603 .5 593.144 53.83)" fill="#E5E5E5" stroke="#000" stroke-width=".906" stroke-linecap="round" stroke-linejoin="round" d="M0 0h60.652v3.854H0z"/><path transform="matrix(.86603 -.5 .86603 .5 606.46 61.44)" fill="#E5E5E5" stroke="#000" stroke-width=".906" stroke-linecap="round" stroke-linejoin="round" d="M0 0h60.652v3.854H0z"/><path transform="matrix(.86603 -.5 .86603 .5 619.73 69.049)" fill="#E5E5E5" stroke="#000" stroke-width=".906" stroke-linecap="round" stroke-linejoin="round" d="M0 0h60.652v3.854H0z"/><path transform="matrix(.86603 -.5 .86603 .5 599.757 57.636)" fill="#E5E5E5" stroke="#000" stroke-width=".906" stroke-linecap="round" stroke-linejoin="round" d="M0 0h60.652v3.854H0z"/><path transform="matrix(.86603 -.5 .86603 .5 613.071 65.244)" fill="#E5E5E5" stroke="#000" stroke-width=".906" stroke-linecap="round" stroke-linejoin="round" d="M0 0h60.652v3.854H0z"/><path transform="matrix(.86603 -.5 .86603 .5 626.388 72.853)" fill="#E5E5E5" stroke="#000" stroke-width=".906" stroke-linecap="round" stroke-linejoin="round" d="M0 0h60.652v3.854H0z"/><path d="M640.623 70.946l47.133-27.212v-7.729l-87.968 3.692v7.673l40.835 23.576z" fill="#C4C4C4"/><path d="M640.623 70.946l47.133-27.212v-7.729l-87.968 3.692v7.673l40.835 23.576zm0 0V63.27" stroke="#000" stroke-width=".906" stroke-linecap="round" stroke-linejoin="round"/><path transform="matrix(.86603 -.5 .86603 .5 599.786 39.667)" fill="#E5E5E5" stroke="#000" stroke-width=".906" stroke-linecap="round" stroke-linejoin="round" d="M0 0h54.425v47.152H0z"/><path transform="matrix(.86603 -.5 .86603 .5 527.108 101.303)" fill="#E5E5E5" stroke="#000" stroke-width=".906" stroke-linecap="round" stroke-linejoin="round" d="M0 0h25.184v24.681H0z"/><path d="M548.702 111.277l17.65-10.19v-2.174h-35.3v2.174l17.65 10.19z" fill="#464646"/><path d="M548.702 111.277l17.65-10.19v-2.174h-35.3v2.174l17.65 10.19zm0 0v-2.151" stroke="#000" stroke-width=".906" stroke-linecap="round" stroke-linejoin="round"/><path transform="matrix(.86603 -.5 .86603 .5 531.052 98.913)" fill="#464646" stroke="#000" stroke-width=".906" stroke-linecap="round" stroke-linejoin="round" d="M0 0h20.381v20.381H0z"/><rect width="15.123" height="18.096" rx="7.561" transform="matrix(.86603 .5 -.86603 .5 705.627 65.296)" fill="#5E6FDB" stroke="#000" stroke-width=".906" stroke-linecap="round" stroke-linejoin="round"/><rect width="15.123" height="16.986" rx="7.561" transform="matrix(.86603 .5 -.86603 .5 674.881 83.047)" fill="#5E6FDB" stroke="#000" stroke-width=".906" stroke-linecap="round" stroke-linejoin="round"/><rect width="15.123" height="17.141" rx="7.561" transform="matrix(.86603 .5 -.86603 .5 644.823 100.401)" fill="#5E6FDB" stroke="#000" stroke-width=".906" stroke-linecap="round" stroke-linejoin="round"/><rect width="15.123" height="17.143" rx="7.561" transform="matrix(.86603 .5 -.86603 .5 614.239 118.057)" fill="#5E6FDB" stroke="#000" stroke-width=".906" stroke-linecap="round" stroke-linejoin="round"/><rect width="15.123" height="17.471" rx="7.561" transform="scale(1.22474 .7071) rotate(45 6.28 671.084)" fill="#5E6FDB" stroke="#000" stroke-width=".906" stroke-linecap="round" stroke-linejoin="round"/><rect width="15.123" height="16.606" rx="7.561" transform="matrix(.86603 .5 -.86603 .5 552.372 153.776)" fill="#5E6FDB" stroke="#000" stroke-width=".906" stroke-linecap="round" stroke-linejoin="round"/><path d="M548.464 163.498c2.036 1.176 5.338 1.176 7.375 0 1.269-.733 1.748-1.75 1.435-2.696l-3.531-7.677h-3.17l-3.544 7.677c-.313.946.165 1.963 1.435 2.696z" fill="#D9D9D9" stroke="#000" stroke-width=".906" stroke-linecap="round" stroke-linejoin="round"/><circle r="1.324" transform="matrix(.86603 -.5 .86603 .5 552.15 153.136)" fill="#D9D9D9" stroke="#000" stroke-width=".906" stroke-linecap="round" stroke-linejoin="round"/><path d="M578.912 145.654c2.037 1.176 5.339 1.176 7.376 0 1.269-.733 1.747-1.75 1.434-2.696l-3.53-7.677h-3.17l-3.544 7.677c-.313.946.165 1.963 1.434 2.696z" fill="#D9D9D9" stroke="#000" stroke-width=".906" stroke-linecap="round" stroke-linejoin="round"/><circle r="1.324" transform="matrix(.86603 -.5 .86603 .5 582.598 135.292)" fill="#D9D9D9" stroke="#000" stroke-width=".906" stroke-linecap="round" stroke-linejoin="round"/><path d="M609.346 127.81c2.037 1.176 5.339 1.176 7.376 0 1.269-.733 1.747-1.75 1.435-2.696l-3.531-7.677h-3.17l-3.544 7.677c-.313.946.165 1.963 1.434 2.696z" fill="#D9D9D9" stroke="#000" stroke-width=".906" stroke-linecap="round" stroke-linejoin="round"/><circle r="1.324" transform="matrix(.86603 -.5 .86603 .5 613.035 117.448)" fill="#D9D9D9" stroke="#000" stroke-width=".906" stroke-linecap="round" stroke-linejoin="round"/><path d="M639.827 110.147c2.037 1.176 5.339 1.176 7.375 0 1.27-.733 1.748-1.749 1.435-2.696l-3.53-7.677h-3.171l-3.544 7.677c-.313.947.165 1.963 1.435 2.696z" fill="#D9D9D9" stroke="#000" stroke-width=".906" stroke-linecap="round" stroke-linejoin="round"/><circle r="1.324" transform="matrix(.86603 -.5 .86603 .5 643.515 99.785)" fill="#D9D9D9" stroke="#000" stroke-width=".906" stroke-linecap="round" stroke-linejoin="round"/><path d="M670.262 92.482c2.037 1.176 5.339 1.176 7.376 0 1.269-.733 1.747-1.75 1.435-2.696l-3.531-7.677h-3.17l-3.544 7.677c-.313.947.165 1.963 1.434 2.696z" fill="#D9D9D9" stroke="#000" stroke-width=".906" stroke-linecap="round" stroke-linejoin="round"/><circle r="1.324" transform="matrix(.86603 -.5 .86603 .5 673.951 82.12)" fill="#D9D9D9" stroke="#000" stroke-width=".906" stroke-linecap="round" stroke-linejoin="round"/><path d="M700.698 75.364c2.037 1.176 5.339 1.176 7.375 0 1.27-.733 1.748-1.75 1.435-2.696l-3.53-7.677h-3.171l-3.544 7.677c-.313.947.166 1.963 1.435 2.696z" fill="#D9D9D9" stroke="#000" stroke-width=".906" stroke-linecap="round" stroke-linejoin="round"/><circle r="1.324" transform="matrix(.86603 -.5 .86603 .5 704.386 65.002)" fill="#D9D9D9" stroke="#000" stroke-width=".906" stroke-linecap="round" stroke-linejoin="round"/><rect width="15.123" height="18.096" rx="7.561" transform="matrix(.86603 .5 -.86603 .5 605.119 6.917)" fill="#5E6FDB" stroke="#000" stroke-width=".906" stroke-linecap="round" stroke-linejoin="round"/><rect width="15.123" height="16.986" rx="7.561" transform="matrix(.86603 .5 -.86603 .5 574.373 24.668)" fill="#5E6FDB" stroke="#000" stroke-width=".906" stroke-linecap="round" stroke-linejoin="round"/><rect width="15.123" height="17.141" rx="7.561" transform="matrix(.86603 .5 -.86603 .5 544.314 42.023)" fill="#5E6FDB" stroke="#000" stroke-width=".906" stroke-linecap="round" stroke-linejoin="round"/><rect width="15.123" height="17.143" rx="7.561" transform="matrix(.86603 .5 -.86603 .5 513.73 59.679)" fill="#5E6FDB" stroke="#000" stroke-width=".906" stroke-linecap="round" stroke-linejoin="round"/><rect width="15.123" height="17.471" rx="7.561" transform="matrix(.86603 .5 -.86603 .5 482.92 77.468)" fill="#5E6FDB" stroke="#000" stroke-width=".906" stroke-linecap="round" stroke-linejoin="round"/><rect width="15.123" height="16.606" rx="7.561" transform="matrix(.86603 .5 -.86603 .5 451.863 95.397)" fill="#5E6FDB" stroke="#000" stroke-width=".906" stroke-linecap="round" stroke-linejoin="round"/><path d="M447.955 105.119c2.037 1.176 5.339 1.176 7.376 0 1.269-.733 1.747-1.749 1.434-2.696l-3.53-7.677h-3.17l-3.544 7.677c-.313.947.165 1.963 1.434 2.696z" fill="#D9D9D9" stroke="#000" stroke-width=".906" stroke-linecap="round" stroke-linejoin="round"/><circle r="1.324" transform="matrix(.86603 -.5 .86603 .5 451.641 94.757)" fill="#D9D9D9" stroke="#000" stroke-width=".906" stroke-linecap="round" stroke-linejoin="round"/><path d="M478.404 87.276c2.037 1.175 5.339 1.175 7.376 0 1.269-.733 1.748-1.75 1.435-2.697l-3.531-7.676h-3.17l-3.544 7.676c-.313.947.165 1.964 1.434 2.697z" fill="#D9D9D9" stroke="#000" stroke-width=".906" stroke-linecap="round" stroke-linejoin="round"/><circle r="1.324" transform="matrix(.86603 -.5 .86603 .5 482.09 76.913)" fill="#D9D9D9" stroke="#000" stroke-width=".906" stroke-linecap="round" stroke-linejoin="round"/><path d="M508.84 69.43c2.037 1.177 5.339 1.177 7.375 0 1.27-.732 1.748-1.749 1.435-2.695l-3.53-7.677h-3.171l-3.544 7.677c-.313.946.166 1.963 1.435 2.696z" fill="#D9D9D9" stroke="#000" stroke-width=".906" stroke-linecap="round" stroke-linejoin="round"/><circle r="1.324" transform="matrix(.86603 -.5 .86603 .5 512.525 59.069)" fill="#D9D9D9" stroke="#000" stroke-width=".906" stroke-linecap="round" stroke-linejoin="round"/><path d="M539.319 51.768c2.036 1.176 5.338 1.176 7.375 0 1.269-.733 1.748-1.75 1.435-2.697l-3.531-7.676h-3.17l-3.544 7.676c-.313.947.165 1.964 1.435 2.697z" fill="#D9D9D9" stroke="#000" stroke-width=".906" stroke-linecap="round" stroke-linejoin="round"/><circle r="1.324" transform="matrix(.86603 -.5 .86603 .5 543.004 41.406)" fill="#D9D9D9" stroke="#000" stroke-width=".906" stroke-linecap="round" stroke-linejoin="round"/><path d="M569.754 34.105c2.037 1.176 5.339 1.176 7.376 0 1.269-.733 1.747-1.75 1.434-2.696l-3.53-7.677h-3.171l-3.544 7.677c-.313.946.166 1.963 1.435 2.696z" fill="#D9D9D9" stroke="#000" stroke-width=".906" stroke-linecap="round" stroke-linejoin="round"/><circle r="1.324" transform="matrix(.86603 -.5 .86603 .5 573.44 23.742)" fill="#D9D9D9" stroke="#000" stroke-width=".906" stroke-linecap="round" stroke-linejoin="round"/><path d="M600.19 16.985c2.036 1.176 5.338 1.176 7.375 0 1.269-.733 1.748-1.75 1.435-2.696l-3.531-7.677h-3.17l-3.544 7.677c-.313.947.165 1.963 1.435 2.696z" fill="#D9D9D9" stroke="#000" stroke-width=".906" stroke-linecap="round" stroke-linejoin="round"/><circle r="1.324" transform="matrix(.86603 -.5 .86603 .5 603.878 6.623)" fill="#D9D9D9" stroke="#000" stroke-width=".906" stroke-linecap="round" stroke-linejoin="round"/><path d="M479.776 112.779v-5.647l-19.649 1.916v5.693l8.168 4.712 11.481-6.674z" fill="#C4C4C4" stroke="#000" stroke-width=".906" stroke-linecap="round" stroke-linejoin="round"/><path d="M468.258 113.716v5.648" stroke="#000" stroke-width=".906"/><path transform="matrix(-.86603 -.5 -.86603 .5 479.746 107.109)" fill="#D9D9D9" stroke="#000" stroke-width=".906" stroke-linecap="round" stroke-linejoin="round" d="M0 0h9.417v13.223H0z"/><path d="M467.866 109.218c.576.332 1.329.499 2.083.499.757.001 1.515-.165 2.092-.499.577-.333.865-.769.865-1.205l-.001-1.749H467l.002 1.749c0 .436.288.872.864 1.205z" fill="#000" stroke="#000" stroke-width=".566" stroke-linecap="round" stroke-linejoin="round"/><path d="M472.06 105.05c1.162.67 1.162 1.757 0 2.428-1.161.67-3.044.67-4.206 0-1.161-.671-1.161-1.758 0-2.428 1.162-.671 3.045-.671 4.206 0z" fill="#505050" stroke="#000" stroke-width=".566" stroke-linecap="round" stroke-linejoin="round"/><path d="M540.874 148.422v-5.646l-19.649 1.916v5.693l8.168 4.711 11.481-6.674z" fill="#C4C4C4" stroke="#000" stroke-width=".906" stroke-linecap="round" stroke-linejoin="round"/><path d="M529.355 149.36v5.648" stroke="#000" stroke-width=".906"/><path transform="matrix(-.86603 -.5 -.86603 .5 540.844 142.753)" fill="#D9D9D9" stroke="#000" stroke-width=".906" stroke-linecap="round" stroke-linejoin="round" d="M0 0h9.417v13.223H0z"/><path d="M528.963 144.862c.575.332 1.328.498 2.082.499.757.001 1.515-.166 2.093-.499.576-.333.864-.769.864-1.206l-.001-1.749h-5.904l.001 1.749c0 .437.288.873.865 1.206z" fill="#000" stroke="#000" stroke-width=".566" stroke-linecap="round" stroke-linejoin="round"/><path d="M533.156 140.693c1.161.671 1.161 1.758 0 2.429-1.162.67-3.044.67-4.206 0-1.161-.671-1.161-1.758 0-2.429 1.162-.67 3.044-.67 4.206 0z" fill="#505050" stroke="#000" stroke-width=".566" stroke-linecap="round" stroke-linejoin="round"/><path d="M493.093 152.824l44.037-25.426V116.04l-71.721 9.42v11.38l27.684 15.984z" fill="#C4C4C4"/><path d="M493.093 152.824l44.037-25.426V116.04l-71.721 9.42v11.38l27.684 15.984zm0 0v-11.557" stroke="#000" stroke-width=".906" stroke-linecap="round" stroke-linejoin="round"/><path d="M465.408 136.856l27.684 15.984v-11.421l-27.684-15.942v11.379z" fill="#505050" stroke="#000" stroke-width=".906" stroke-linecap="round" stroke-linejoin="round"/><path d="M467.738 135.837l25.328 14.623v-10.449l-25.328-13.423v9.249z" fill="#000" stroke="#000" stroke-width=".906" stroke-linecap="round" stroke-linejoin="round"/><path transform="matrix(.86603 .5 -.86603 .5 509.445 100.046)" fill="#E5E5E5" stroke="#000" stroke-width=".906" stroke-linecap="round" stroke-linejoin="round" d="M0 0h31.967v50.85H0z"/><rect width="2.675" height="10.613" rx="1.337" transform="matrix(-.86603 -.5 -.86603 .5 490.789 120.677)" fill="#505050" stroke="#000" stroke-width=".906" stroke-linecap="round" stroke-linejoin="round"/><rect width="2.675" height="10.613" rx="1.337" transform="matrix(-.86603 -.5 -.86603 .5 502.883 127.545)" fill="#505050" stroke="#000" stroke-width=".906" stroke-linecap="round" stroke-linejoin="round"/><path transform="matrix(.86603 -.5 .86603 .5 572.589 68.511)" fill="#E5E5E5" stroke="#000" stroke-width=".906" stroke-linecap="round" stroke-linejoin="round" d="M0 0h5.099v35.909H0z"/><path transform="matrix(.86603 -.5 .86603 .5 563.05 74.02)" fill="#E5E5E5" stroke="#000" stroke-width=".906" stroke-linecap="round" stroke-linejoin="round" d="M0 0h5.796v35.909H0z"/><path transform="matrix(.86603 -.5 .86603 .5 552.892 79.883)" fill="#E5E5E5" stroke="#000" stroke-width=".906" stroke-linecap="round" stroke-linejoin="round" d="M0 0h5.88v35.909H0z"/><path transform="matrix(.86603 -.5 .86603 .5 547.494 80.033)" stroke="#000" stroke-width=".906" stroke-linecap="round" stroke-linejoin="round" d="M0 0h34.146v42.305H0z"/><path transform="matrix(.86603 -.5 .86603 .5 499.966 89.441)" stroke="#000" stroke-width=".906" stroke-linecap="round" stroke-linejoin="round" d="M0 0h70.994v78.369H0z"/><circle r="2.139" transform="matrix(.86603 .5 -.86603 .5 640.373 56.94)" fill="#7C7C7C" stroke="#000" stroke-width=".906" stroke-linecap="round" stroke-linejoin="round"/><path d="M576.535 93.448l23.922-13.811v-6.358l-39.954 4.574v6.339l16.032 9.256z" fill="#464646"/><path d="M576.535 93.448l23.922-13.811v-6.358l-39.954 4.574v6.339l16.032 9.256zm0 0v-6.242" stroke="#000" stroke-width=".906" stroke-linecap="round" stroke-linejoin="round"/><path transform="matrix(.86603 -.5 .86603 .5 560.503 77.848)" fill="#464646" stroke="#000" stroke-width=".906" stroke-linecap="round" stroke-linejoin="round" d="M0 0h27.623v18.512H0z"/></svg>