<svg width="749" height="749" viewBox="0 0 749 749" fill="none" xmlns="http://www.w3.org/2000/svg"><style>@keyframes left-paw{0%,35%,45%,to{transform:translateY(0)}36%,37%{transform:translateY(-60px)}}@keyframes right-paw{0%{transform:translateX(0)}85%,95%,to{transform:translateX(0) translateY(-33px)}86%,87%{transform:translateX(-50px) translateY(-33px)}}</style><g id="74" clip-path="url(#clip0)"><g id="Group 1985"><g id="Group 1954"><ellipse id="Ellipse 263" cx="368.003" cy="505.553" rx="63.902" ry="40.501" fill="#D6D2CD"/><ellipse id="Ellipse 267" cx="331.102" cy="410.15" rx="52.201" ry="40.501" fill="#D6D2CD"/><ellipse id="Ellipse 264" cx="580.41" cy="580.255" rx="49.501" ry="27.001" fill="#D6D2CD"/><path id="Rectangle 1308" d="M712.96 491.4l19.231-42.176-124.163-24.557-124.162 24.557-19.231 42.176 124.162 71.685 70.008-10.843L712.96 491.4z" fill="#D6D2CD"/><g id="Group 1466"><path id="Rectangle 1307" d="M264.327 534.64l19.231-42.176-124.162-24.557-124.163 24.557-19.231 42.176 124.162 71.686 124.163-71.686z" fill="#D6D2CD"/><g id="Group 1465"><g id="Group 1452"><path id="Rectangle 1311" d="M488.642 368.56l19.232-42.176-124.163-24.557-124.163 24.557-19.231 42.176 124.163 71.685 124.162-71.685z" fill="#D6D2CD"/><g id="Group 1248"><g id="Group 1235"><path id="Rectangle 1311_2" d="M384.083 112.242l-124.162 71.685-31.416 58.96 124.162-71.685 31.416-58.96z" fill="#E0A173" stroke="#000" stroke-width="1.8" stroke-linecap="round" stroke-linejoin="round"/><path id="Rectangle 1304" transform="matrix(-.86603 -.5 -.86603 .5 508.369 183.927)" fill="#4E4E4E" stroke="#000" stroke-width="1.8" stroke-linecap="round" stroke-linejoin="round" d="M0 0h143.37v143.37H0z"/><path id="Rectangle 1307_2" transform="matrix(-.86603 -.5 -.86603 .5 474.952 203.221)" fill="#000" stroke="#000" stroke-width="1.8" stroke-linecap="round" stroke-linejoin="round" d="M0 0h104.784v104.784H0z"/><g style="animation:20s ease-in-out 0ms infinite forwards left-paw"><g id="Claws" fill="#000" stroke="#000"><path id="Vector 495" d="M282.778 220.333c-.793 2.168 0 5.349 0 5.542 1.074-1.24 1.802-1.742 3.615-2.024 0 0-1.95-2.844-3.615-3.518z"/><path id="Vector 496" d="M294.306 208.61c-1.273 1.926-1.237 5.204-1.282 5.391 1.421-.795 2.326-.969 3.985-1.133 0 0-.759-2.8-2.703-4.258z"/><path id="Vector 497" d="M309.357 209.827c-1.836 1.401-2.542 4.113-2.646 4.276 1.664-.347 2.599-.407 4.236.351 0 0-.385-3.277-1.59-4.627z"/><path id="Vector 498" d="M320.683 215.853c-1.836 1.4-2.507 3.902-2.611 4.064 1.629-.096 2.597.122 3.718 1.139 0 0-.067-3.737-1.107-5.203z"/></g><path id="Vector 494" d="M289.553 250.231c-2.238 22.883-1.33 43.887 0 54.419l35.946 1.067c-6.218-25.463-6.218-40.261-6.218-53.992v0c5.412-9.55 6.939-21.962 4.552-27.314-2.386-5.352-5.685-4.815-7.811-3.399-.674-1.777-1.28-5.073-5.198-6.445-3.918-1.371-6.204-.038-7.921 1.433l-.028-.023c-2.437-2.042-4.142-3.47-8.308-2.551-4.398.969-6.344 5.456-6.344 10.359-1.257-.294-3.128-.144-4.751 1.164-3.86 3.112-3.318 15.46 6.081 25.282z" fill="#FFDBC0" stroke="#000" stroke-width="1.8"/><path id="Vector 495_2" d="M303.729 243.351c-3.111.099-6.64 3.475-8.774 1.091-2.134-2.385 2.077-14.657 8.854-14.815 6.778-.158 10.399 14.046 7.253 15.309-3.147 1.263-4.222-1.684-7.333-1.585z" fill="#000"/><path id="Ellipse 268" d="M290.592 230.579c.415 1.72-.284 4.935-2.004 5.35-1.719.416-3.808-2.126-4.224-3.846-.415-1.719.553-3.822 2.272-4.238 1.72-.415 3.541 1.015 3.956 2.734z" fill="#000"/><path id="Ellipse 269" d="M299.585 220.515c.19 1.759-.919 4.857-2.678 5.047-1.759.189-3.502-2.602-3.691-4.361-.19-1.759 1.032-3.804 2.791-3.993 1.759-.19 3.389 1.548 3.578 3.307z" fill="#000"/><path id="Ellipse 270" d="M311.358 222.132c-.3 1.744-2.22 4.451-3.963 4.151-1.744-.299-2.651-3.491-2.352-5.235.3-1.744 2.015-3.26 3.759-2.961 1.743.299 2.855 2.301 2.556 4.045z" fill="#000"/><path id="Ellipse 271" d="M322.074 228.18c0 1.769-2.012 5.09-3.781 5.09-1.769 0-2.626-3.321-2.626-5.09a3.204 3.204 0 116.407 0z" fill="#000"/><path id="Vector 501" d="M298.728 288.129c7.39 0 12.684-.796 22.235-4.738.395 2.281.886 4.302 1.453 7.075-11.977 4.397-20.783.274-23.688-2.337z" fill="#000"/><path id="Vector 500" d="M301.508 260.334c8.591 0 13.455-3.58 17.814-5.243v5.812c-9.677 2.78-13.235 2.605-17.814-.569z" fill="#000"/><path id="Vector 499" d="M298.097 273.535c-3.791-.717-8.069-3.799-9.734-5.251v7.301c1.839 1.84 3.632 2.451 6.902 2.925 4.99.723 12.078 0 18.2-4.206-7.351.662-10.629.128-15.368-.769z" fill="#000"/></g><path id="Rectangle 1301" transform="matrix(-.86603 .5 0 1 508.369 183.927)" fill="#FFB681" stroke="#000" stroke-width="1.8" stroke-linecap="round" stroke-linejoin="round" d="M0 0h143.37v143.37H0z"/><path id="Rectangle 1310" d="M465.762 208.528l-79.805 46.076v142.481l63.628-37.878 16.177-150.679z" fill="#E0A173"/><path id="Rectangle 1309" transform="matrix(-.86603 .5 0 1 474.517 254.596)" fill="#fff" stroke="#000" stroke-width="1.8" stroke-linecap="round" stroke-linejoin="round" d="M0 0h25.052v59.484H0z"/><path id="Rectangle 1308_2" d="M508.369 183.931l-124.163 71.685 21.164 69.079 124.162-71.685-21.163-69.079z" fill="#FFDBC0" stroke="#000" stroke-width="1.8" stroke-linecap="round" stroke-linejoin="round"/><path id="Rectangle 1303" d="M259.78 183.417l124.426 72.196v143.37l-124.162-71.685-.264-143.881z" fill="#E0A173" stroke="#000" stroke-width="1.8" stroke-linecap="round" stroke-linejoin="round"/></g></g></g><g id="Group 1922" fill-rule="evenodd" clip-rule="evenodd" stroke="#000" stroke-width="2.227" stroke-linecap="round" stroke-linejoin="round"><path id="Vector (Stroke)" d="M420.525 494.55c.022 14.706-20.61 26.618-46.082 26.606-25.473-.013-46.139-11.945-46.161-26.651-.004-2.692.682-5.284 1.958-7.724.234-.448.307-.902.239-1.342l-.348-7.11c-3.252-.57-12.383 1.986-13.363 3.863-1.621 3.099-.79 8.91-.785 12.307.027 18.628 26.205 33.742 58.47 33.757 32.265.016 58.399-15.072 58.372-33.7l-.361-8.357c-2.77-17.157-27.679-25.386-58.11-25.401-5.882-.003-11.571.497-16.94 1.433-3.25.566-5.085 2.547-4.098 4.424.986 1.878 4.42 2.94 7.67 2.374a77.842 77.842 0 0113.379-1.13c25.472.012 46.139 11.944 46.16 26.651zm-27.673-.014c.009 5.883-8.244 10.647-18.433 10.642-10.189-.004-18.455-4.777-18.464-10.66-.003-1.961-2.758-3.552-6.155-3.553-2.53-.002-5.419-5.323-6.361-4.062-.322.431.217 7.609.217 7.609.014 9.804 13.792 17.759 30.774 17.767 16.981.009 30.736-7.933 30.722-17.737l-.196-7.748c-2.335-8.477-14.264-13.518-29.598-13.526-2.07-.001-7.117-2.328-7.413-.272l.288 7.326c.003 1.961 2.759 3.552 6.155 3.554 10.189.005 18.456 4.778 18.464 10.66zm-15.837 1.499c1.016-.587 1.601-1.328 1.756-2.093.21-1.042-.233-7.67-.233-7.67l-33.736-13.852c-2.403-1.388-8.35-6.126-10.749-4.741 0 0 .348 6.201.265 7.04-.096.976.502 1.971 1.795 2.718l32.205 18.593c2.404 1.388 6.297 1.39 8.697.005z" fill="#FAC864"/><path id="Vector (Stroke)_2" d="M420.271 487.277c.021 14.706-20.611 26.618-46.083 26.606-25.472-.013-46.139-11.945-46.161-26.651-.004-2.692.682-5.284 1.958-7.724.981-1.877-.86-3.859-4.112-4.429-3.251-.569-6.682.49-7.663 2.366-1.62 3.1-2.487 6.384-2.482 9.781.027 18.628 26.205 33.742 58.47 33.757 32.265.016 58.399-15.072 58.372-33.7-.028-18.628-26.206-33.742-58.471-33.758-5.882-.003-11.571.497-16.94 1.433-3.249.566-5.084 2.547-4.098 4.424.986 1.878 4.421 2.94 7.67 2.374a77.842 77.842 0 0113.379-1.13c25.472.012 46.139 11.944 46.161 26.651zm-27.673-.014c.008 5.883-8.245 10.648-18.434 10.643-10.188-.005-18.455-4.778-18.464-10.661-.003-1.961-2.758-3.552-6.155-3.553-3.396-.002-6.147 1.586-6.144 3.547.014 9.804 13.792 17.759 30.774 17.767 16.981.009 30.736-7.932 30.722-17.737-.015-9.804-13.793-17.759-30.774-17.767-3.396-.002-6.147 1.587-6.144 3.547.002 1.961 2.758 3.552 6.154 3.554 10.189.005 18.456 4.778 18.465 10.66zm-15.838 1.499c2.4-1.386 2.396-3.634-.007-5.021l-32.206-18.594c-2.403-1.388-6.297-1.39-8.696-.004-2.4 1.385-2.397 3.633.007 5.021l32.205 18.594c2.404 1.387 6.298 1.389 8.697.004z" fill="#FFE598"/></g><g id="Group 1949"><ellipse id="Ellipse 265" cx="277.308" cy="565.536" rx="38.813" ry="20.701" transform="rotate(-18.757 277.308 565.536)" fill="#D6D2CD"/><ellipse id="Ellipse 266" cx="311.509" cy="585.336" rx="38.813" ry="20.701" transform="rotate(-18.757 311.509 585.336)" fill="#D6D2CD"/><path id="Ellipse 267_2" d="M347.974 605.256c3.676 10.826-5.301 23.662-20.052 28.671-14.75 5.009-29.688.294-33.364-10.531-3.676-10.826 5.301-23.662 20.052-28.671 14.75-5.009 29.688-.294 33.364 10.531z" fill="#D6D2CD"/><g id="Group 1451"><g id="Group 1447" stroke="#000" stroke-width="2.506" stroke-linecap="round" stroke-linejoin="round"><path id="Vector" d="M294.896 573.019c0 .475-.268.909-.693 1.121-5.042 2.518-10.483 3.647-16.3 3.394-5.799-.242-11.254-1.838-16.348-4.779-4.805-2.774-7.711-6.065-7.972-9.977-.02-.304-.022-2.622-.014-4.833.004-1.127.012-2.257.023-3.138.005-.439.011-.821.018-1.11.006-.247.014-.521.034-.669.044-.325.213-.62.471-.821l.771.987-.771-.988h.001v-.001l.003-.002.011-.008.038-.029.144-.111c.126-.095.312-.235.553-.414a87.845 87.845 0 012.099-1.495 112.952 112.952 0 017.619-4.81l2.567-1.481a44.77 44.77 0 0113.17-5.069c4.629-.982 9.157-1.18 13.577-.582 4.456.597 8.516 1.945 12.167 4.052 1.066.616 1.831.943 2.524 1.239.284.122.557.238.833.367.997.466 1.797 1.017 2.581 2.245.219.343.649.733 1.113 1.075.218.16.417.291.561.381l.167.102.04.023.007.004h.001c.395.222.64.64.64 1.093v8.299c0 .03-.001.061-.003.091-.243 3.32-2.554 6.29-6.351 8.96a1.252 1.252 0 01-1.347.061l-8.651-4.995a1.252 1.252 0 01-.627-1.085v-7.768c0-.137.022-.271.064-.395-2.614-1.482-5.514-2.066-8.744-1.729l6.024 22.795zm0 0v-7.801c0-.653-.503-1.197-1.154-1.249l-8.652-.682a1.247 1.247 0 00-.655.127m10.461 9.605l-10.461-9.605m0 0c-2.604 1.293-5.057 1.884-7.375 1.834-2.265-.05-4.656-.769-7.187-2.23-1.081-.624-1.978-.873-2.639-.985.338-.641.967-1.412 1.988-2.307 1.233-1.081 2.95-2.266 5.179-3.553l3.168-1.829m6.866 9.07l-6.866-9.07m0 0c4.292-2.434 8.054-3.778 11.303-4.12l-11.303 4.12zm29.472 54.169a1.254 1.254 0 00-.064.425v7.703c0 .448.239.861.627 1.085l17.987 10.385c.387.224.865.224 1.253 0l4.199-2.425a1.25 1.25 0 00.626-1.085v-5.455c3.341-.096 6.057-.336 8.122-.734 2.109-.405 3.91-1.012 5.364-1.851 2.323-1.341 3.951-3.069 3.894-5.286l-.023-7.982c0-.048-.003-.097-.009-.145-.032-.271-.11-.67-.369-1.02a1.547 1.547 0 00-1.23-.627 2.34 2.34 0 00-.794.143c-.091.031-.232.084-.349.128l-.157.058c-.312.113-.594.19-.901.191-.291.001-.672-.066-1.161-.349-1.903-1.098-4.003-1.839-6.288-2.23a20.74 20.74 0 00-6.677-.098l-.05-.015a3.117 3.117 0 01-.481-.213c-.351-.183-.745-.43-1.184-.71a45.344 45.344 0 0011.12-4.606l1.874-1.082c4.207-2.429 7.276-5.082 9.062-8.002 1.139-1.824 1.744-3.696 1.723-5.596v-7.89c0-.159-.03-.318-.09-.466-.66-1.647-1.912-2.654-3.288-3.471-.663-.394-1.396-.767-2.138-1.145l-.071-.036a52.194 52.194 0 01-2.43-1.296c-2.121-1.225-4.34-1.135-6.357-.914-.41.045-.811.095-1.205.144-1.631.203-3.156.392-4.775.173-4.534-.62-9.194-.434-13.975.547h-.002a45.122 45.122 0 00-13.494 5.153l-2.076 1.199-.005.003c-1.579.92-2.924 1.269-4.207 1.601-.206.053-.41.106-.613.161-1.326.357-2.691.819-3.731 2.191l-.789.131a1.252 1.252 0 00-1.049 1.219c-.008.558.012 3.082.087 5.593a96.99 96.99 0 00.161 3.553c.036.512.077.979.125 1.36.042.326.105.745.234 1.055 1.202 2.889 3.723 5.344 7.336 7.43 3.672 2.12 7.791 3.478 12.34 4.086 3.719.504 7.487.475 11.299-.083v6.536c0 .448.238.862.626 1.085l4.285 2.474-20.987-1.85a1.246 1.246 0 00-.792.178 1.246 1.246 0 00-.529.661l-.004.011zm26.21.794a7.85 7.85 0 012.594-.347c-.245.048-.504.093-.78.133l-.007.001c-.534.081-1.137.153-1.807.213zm-5.886-36.457h.003c3.624-.377 6.725.229 9.366 1.753 1.357.784 2.155 1.556 2.556 2.266.374.662.448 1.347.193 2.146-.266.834-.919 1.814-2.112 2.928-1.186 1.106-2.839 2.284-4.992 3.527l-2.043 1.179-.001.001c-4.277 2.447-8.225 3.838-11.854 4.237-3.602.386-6.692-.214-9.331-1.738-1.375-.793-2.172-1.574-2.562-2.291-.363-.665-.426-1.363-.14-2.191.628-1.812 2.799-3.993 7.056-6.451l2.043-1.179.002-.002c4.276-2.446 8.211-3.819 11.816-4.185zm-60.451-9.956l.003-.018-.003.018z" fill="#FF8484"/><g id="Group 1443" fill="#FFB5B5"><path id="2" d="M307.607 607.436a1.253 1.253 0 000 2.17l17.987 10.385c.388.224.865.224 1.253 0l4.199-2.424a1.254 1.254 0 000-2.17l-7.353-4.246 7.719-.118h.014c3.454-.091 6.253-.333 8.369-.74 2.108-.406 3.909-1.012 5.364-1.852 2.478-1.431 4.162-3.309 3.861-5.713-.27-2.244-2.21-4.099-4.961-5.687-1.903-1.099-4.002-1.84-6.288-2.231a20.746 20.746 0 00-6.747-.087l-.005.001c-2.21.347-4.199 1.016-5.947 2.026a1.251 1.251 0 000 2.17l5.226 3.017c.388.224.865.224 1.253 0a8.004 8.004 0 013.637-1.093c1.287-.065 2.382.193 3.329.74.465.268.706.493.819.645a.45.45 0 01.073.13.072.072 0 01.004.035l-.002.019c-.008.079-.137.497-1.237 1.132-.661.382-1.671.706-3.105.917h-.001l-.007.001c-1.427.217-3.338.361-5.75.423l-17.532.322c-.212.004-.42.062-.603.168l-3.569 2.06z"/><path id="CO" d="M294.203 566.012a1.253 1.253 0 00.067-2.206l-8.652-4.995a1.25 1.25 0 00-1.183-.037c-2.604 1.293-5.057 1.884-7.375 1.834-2.265-.05-4.656-.769-7.187-2.23-1.392-.804-2.211-1.566-2.618-2.24-.371-.613-.428-1.188-.203-1.828.262-.712.924-1.62 2.17-2.712 1.233-1.081 2.95-2.267 5.179-3.553l3.168-1.829c4.292-2.434 8.053-3.778 11.302-4.121 3.273-.34 6.206.263 8.846 1.787 1.266.731 2.148 1.412 2.705 2.026.556.612.722 1.08.736 1.418l.001.033c.022.33-.091.793-.574 1.424-.487.637-1.291 1.363-2.481 2.166a1.254 1.254 0 00.075 2.124l8.651 4.994c.422.244.948.221 1.347-.06 4.363-3.069 6.764-6.545 6.32-10.44-.435-3.818-3.49-7.097-8.433-9.95-3.651-2.108-7.711-3.456-12.167-4.053-4.42-.598-8.948-.4-13.577.582a44.77 44.77 0 00-13.17 5.069l-2.567 1.482c-6.389 3.688-10.292 7.714-10.937 12.194h0l-.002.012c-.622 4.644 2.381 8.531 7.911 11.724 5.094 2.941 10.549 4.537 16.348 4.779 5.817.252 11.258-.876 16.3-3.394zm.157 4.922l-.003.004c-1.771 2.945-2.121 5.96-.89 8.919 1.202 2.889 3.723 5.344 7.336 7.43 3.672 2.12 7.791 3.478 12.34 4.086 4.569.619 9.211.434 13.919-.548 4.708-.983 9.187-2.702 13.434-5.153l1.874-1.082c4.207-2.429 7.276-5.082 9.062-8.002 1.847-2.957 2.25-5.987 1.017-8.958-1.164-2.897-3.683-5.359-7.311-7.454-3.654-2.109-7.772-3.466-12.339-4.085-4.533-.62-9.193-.434-13.973.547h-.002a45.122 45.122 0 00-13.494 5.153l-2.076 1.199-.005.003c-4.116 2.399-7.126 5.032-8.889 7.941zm33.005-6.212h.003c3.624-.377 6.725.229 9.366 1.753 1.357.784 2.155 1.555 2.556 2.266.374.662.448 1.347.193 2.146-.266.834-.919 1.814-2.112 2.928-1.186 1.106-2.839 2.284-4.992 3.527l-2.043 1.179-.003.002c-4.276 2.447-8.223 3.837-11.852 4.236-3.602.386-6.692-.214-9.332-1.738-1.374-.794-2.171-1.575-2.561-2.291-.363-.666-.426-1.364-.14-2.191.628-1.812 2.799-3.993 7.056-6.451l2.043-1.18.002-.001c4.276-2.446 8.211-3.819 11.816-4.185z"/></g></g></g></g><g id="Group 1437"><g id="Group 1248_2"><g id="Group 1235_2"><path id="Rectangle 1303_2" transform="matrix(.86603 .5 0 1 483.021 306.87)" fill="#4E4E4E" stroke="#000" stroke-width="1.8" stroke-linecap="round" stroke-linejoin="round" d="M0 0h143.37v143.37H0z"/><path id="Rectangle 1306" transform="matrix(.86603 .5 0 1 519.484 327.923)" fill="#000" d="M0 0h101.265v101.265H0z"/><g style="animation:16s ease-in-out 0ms infinite forwards right-paw"><g id="Claws_2" fill="#000" stroke="#000"><path id="Vector 495_3" d="M618.403 490.803c2.286.322 5.231-1.118 5.419-1.158-1.436-.791-2.079-1.398-2.734-3.112 0 0-2.373 2.5-2.685 4.27z"/><path id="Vector 496_2" d="M604.53 481.979c2.149.843 5.347.122 5.54.127-1.075-1.223-1.435-2.072-1.941-3.66 0 0-2.579 1.327-3.599 3.533z"/><path id="Vector 497_2" d="M602.576 467.006c1.753 1.503 4.553 1.626 4.734 1.694-.687-1.554-.941-2.456-.542-4.216 0 0-3.124 1.061-4.192 2.522z"/><path id="Vector 498_2" d="M606.102 454.671c1.753 1.503 4.339 1.636 4.52 1.704-.435-1.573-.424-2.565.336-3.874 0 0-3.64.847-4.856 2.17z"/></g><path id="Vector 494_2" d="M646.225 477.931c22.846-2.593 43.196-7.871 53.218-11.371l-6.468-35.376c-23.601 11.401-38.072 14.493-51.5 17.362h-.001c-10.47-3.297-22.926-2.197-27.661 1.256-4.735 3.452-3.521 6.566-1.692 8.348-1.598 1.031-4.695 2.313-5.217 6.431-.522 4.118 1.259 6.075 3.056 7.446l-.017.032c-1.487 2.81-2.527 4.776-.759 8.659 1.868 4.098 6.663 5.063 11.457 4.039-.025 1.291.512 3.089 2.131 4.403 3.85 3.124 15.812.015 23.453-11.229z" fill="#FFDBC0" stroke="#000" stroke-width="1.8"/><path id="Vector 495_4" d="M636.535 465.505c.747 3.021 4.786 5.767 2.9 8.352-1.886 2.586-14.767 1.032-16.338-5.563-1.57-6.596 11.563-13.104 13.456-10.291 1.893 2.813-.764 4.48-.018 7.502z" fill="#000"/><path id="Ellipse 268_2" d="M626.791 481.02c1.595-.765 4.885-.753 5.65.842.766 1.595-1.283 4.169-2.878 4.934-1.595.766-3.853.259-4.619-1.336-.765-1.595.252-3.674 1.847-4.44z" fill="#000"/><path id="Ellipse 269_2" d="M615.069 474.329c1.681-.553 4.943-.117 5.496 1.564.553 1.681-1.813 3.969-3.494 4.521-1.68.553-3.935-.215-4.488-1.895-.553-1.681.806-3.638 2.486-4.19z" fill="#000"/><path id="Ellipse 270_2" d="M614.191 462.479c1.768-.072 4.816 1.24 4.888 3.008.072 1.767-2.861 3.322-4.629 3.393-1.767.072-3.609-1.289-3.68-3.057-.072-1.767 1.653-3.273 3.421-3.344z" fill="#000"/><path id="Ellipse 271_2" d="M617.866 450.735c1.731-.37 5.399.904 5.768 2.634.37 1.73-2.699 3.262-4.429 3.631a3.203 3.203 0 11-1.339-6.265z" fill="#000"/><path id="Vector 501_2" d="M681.37 461.04c-1.545-7.228-3.429-12.239-9.28-20.755 2.149-.863 4.023-1.765 6.615-2.899 6.803 10.793 4.611 20.266 2.665 23.654z" fill="#000"/><path id="Vector 500_2" d="M653.608 464.128c-1.795-8.401-6.312-12.409-8.85-16.325l5.684-1.214c4.741 8.882 5.312 12.398 3.166 17.539z" fill="#000"/><path id="Vector 499_2" d="M667.23 464.706c.091 3.857-2.03 8.684-3.101 10.616l7.139-1.526c1.415-2.183 1.638-4.064 1.418-7.36-.335-5.032-2.523-11.812-7.916-16.92 2.184 7.051 2.347 10.368 2.46 15.19z" fill="#000"/></g><path id="Rectangle 1304_2" transform="matrix(-.86603 -.5 -.86603 .5 731.345 306.87)" fill="#FFDBC0" stroke="#000" stroke-width="1.8" stroke-linecap="round" stroke-linejoin="round" d="M0 0h143.37v143.37H0z"/><path id="Rectangle 1305" transform="matrix(-.86603 -.5 -.86603 .5 678.423 276.313)" fill="#fff" stroke="#000" stroke-width="1.8" stroke-linecap="round" stroke-linejoin="round" d="M0 0h21.148v143.37H0z"/><path id="Rectangle 1301_2" transform="matrix(-.86603 .5 0 1 731.345 306.87)" fill="#FFB681" stroke="#000" stroke-width="1.8" stroke-linecap="round" stroke-linejoin="round" d="M0 0h143.37v143.37H0z"/><path id="Rectangle 1309_2" transform="matrix(-.86603 .5 0 1 726.748 321.46)" fill="#FFDBC0" stroke="#000" stroke-width="1.8" stroke-linecap="round" stroke-linejoin="round" d="M0 0h29.887v30.351H0z"/><path id="Rectangle 1308_3" d="M670.669 368.91l-63.486 9.647v143.37l63.486-9.646V368.91z" fill="#E0A173" stroke="#000" stroke-width="1.8" stroke-linecap="round" stroke-linejoin="round"/><path id="Rectangle 1307_3" transform="matrix(.86603 .5 0 1 536.94 338.001)" fill="#fff" stroke="#000" stroke-width="1.8" stroke-linecap="round" stroke-linejoin="round" d="M0 0h19.924v24.564H0z"/></g></g></g><g id="Group 1947"><ellipse id="Ellipse 262" cx="507.507" cy="502.853" rx="52.201" ry="30.601" fill="#D6D2CD"/></g><g id="Group 1464"><g id="Group 1460" stroke="#000" stroke-width="1.8" stroke-linecap="round" stroke-linejoin="round"><path id="Union" d="M277.1 380.299c6.141-3.545 20.703 1.544 26.843 5.089l54.527 31.482c4.853.191 15.722-1.367 19.431.775v11.317c-.033 3.056-2.07 6.106-6.109 8.438-8.146 4.703-21.353 4.703-29.499 0-3.71-2.142-5.731-4.89-6.061-7.692l-54.527-31.481c-3.068-1.771-4.603-4.092-4.605-6.413v-11.515z" fill="#5E6FDB"/><path id="Union_2" d="M281.707 374.108c6.141-3.545 16.097-3.545 22.238 0l54.527 31.482c4.853.191 9.612 1.357 13.322 3.499 8.146 4.703 8.146 12.328 0 17.031-8.146 4.703-21.354 4.703-29.5 0-3.71-2.142-5.73-4.89-6.061-7.692l-54.526-31.481c-6.141-3.545-6.141-9.293 0-12.839z" fill="#B0B8ED"/><path id="Union_3" d="M303.908 386.921c2.179-1.258 5.712-1.258 7.891 0l43.985 25.395c3.183-.365 6.613.164 9.08 1.589 3.927 2.267 3.927 5.943 0 8.211-3.927 2.267-10.295 2.267-14.222 0-2.468-1.425-3.385-3.407-2.751-5.246l-43.983-25.393c-2.179-1.258-2.179-3.298 0-4.556z" fill="#5E6FDB"/></g></g><g id="Group 1247"><g id="Group 1235_3" stroke="#000" stroke-width="1.8" stroke-linecap="round" stroke-linejoin="round"><path id="Rectangle 1304_3" transform="matrix(-.86603 -.5 -.86603 .5 284.057 350.008)" fill="#FFDBC0" d="M0 0h143.37v143.37H0z"/><path id="Rectangle 1307_4" transform="matrix(-.86603 -.5 -.86603 .5 284.057 350.009)" fill="#FFDBC0" d="M0 0h67.672v143.37H0z"/><path id="Rectangle 1309_3" transform="matrix(-.86603 -.5 -.86603 .5 265.609 349.655)" fill="#fff" d="M0 0h26.198v34.079H0z"/><path id="Rectangle 1305_2" transform="matrix(-.86603 -.5 -.86603 .5 231.421 381.586)" fill="#fff" d="M0 0h145.748v19.431H0z"/><path id="Rectangle 1301_3" transform="matrix(-.86603 .5 0 1 284.057 350.008)" fill="#FFB681" d="M0 0h143.37v143.37H0z"/><path id="Rectangle 1303_3" transform="matrix(.86603 .5 0 1 35.73 350.008)" fill="#E0A173" d="M0 0h143.37v143.37H0z"/><path id="Rectangle 1308_4" transform="matrix(.86603 .5 0 1 80.25 399.107)" fill="#4E4E4E" d="M0 0h40.559v17.424H0z"/><path id="Rectangle 1306_2" transform="matrix(-.86603 .5 0 1 230.663 380.798)" fill="#fff" d="M0 0h19.925v48.461H0z"/></g></g></g></g><g id="Group 1952"><path id="Ellipse 254" d="M552.375 506.762c-20.558 11.869-53.89 11.869-74.448 0-10.04-5.796-15.176-13.351-15.41-20.947l-.003-12.786c2.544-4.074 9.758-5.985 15.413-9.25 20.558-11.869 53.89-11.869 74.448 0 6.401 3.696 12.995 4.57 15.41 9.25v12.786c-.234 7.596-5.371 15.151-15.41 20.947z" fill="#5E6FDB" stroke="#000" stroke-width="1.8" stroke-linecap="round" stroke-linejoin="round"/><path id="Ellipse 253" d="M552.373 495.336c-20.559 11.869-53.89 11.869-74.448 0-20.559-11.869-20.559-31.113 0-42.983 20.558-11.869 53.889-11.869 74.448 0 20.558 11.87 20.558 31.114 0 42.983z" fill="#B0B8ED" stroke="#000" stroke-width="1.8" stroke-linecap="round" stroke-linejoin="round"/><path id="Ellipse 255" d="M551.776 452.408c-20.177-11.942-52.891-11.942-73.069 0l73.069 43.245c20.178-11.942 20.178-31.304 0-43.245z" fill="#5E6FDB"/><path id="Ellipse 253_2" d="M511.186 463.076c-11.221-5.051-21.022-7.45-24.307-5.553-3.284 1.896.871 7.555 9.62 14.033m7.17 4.838a128.56 128.56 0 003.472 2.076c15.613 9.015 31.857 14.252 36.281 11.698 4.424-2.554-4.647-11.933-20.261-20.948a137.268 137.268 0 00-3.596-2.004" stroke="#000" stroke-width="1.8" stroke-linecap="round" stroke-linejoin="round"/><path id="Ellipse 253_3" d="M535.826 470.006c7.344-5.817 10.612-10.74 7.592-12.483-4.423-2.555-20.667 2.683-36.281 11.697-15.614 9.015-24.685 18.394-20.261 20.948 3.019 1.743 11.546-.144 21.621-4.384" stroke="#000" stroke-width="1.8" stroke-linecap="round" stroke-linejoin="round"/><ellipse id="Ellipse 253_4" rx="2.4" ry="4.897" transform="matrix(-.86603 .5 -.86603 -.5 515.147 473.845)" fill="#000" stroke="#000" stroke-width="1.8" stroke-linecap="round" stroke-linejoin="round"/><path id="Ellipse 256" d="M552.373 495.336c-20.559 11.869-53.89 11.869-74.448 0-20.559-11.869-20.559-31.113 0-42.983 20.558-11.869 53.889-11.869 74.448 0 20.558 11.87 20.558 31.114 0 42.983z" stroke="#000" stroke-width="1.8" stroke-linecap="round" stroke-linejoin="round"/></g><path id="Ellipse 1" d="M555.019 580.791c20.204 11.664 58.832 11.804 71.303 11.518 2.327-.053 4.127-1.092 4.22-2.436.073-1.066.13-11.902.109-13.546 0 0-2.847-17.683-20.06-27.621-15.345-8.859-40.226-8.859-55.572 0-5.24 3.026-9.846 3.296-11.508 7.167v9.047c.075 5.749 3.911 11.484 11.508 15.871z" fill="#FF8484" stroke="#000" stroke-width="2.447" stroke-linecap="round" stroke-linejoin="round"/><path id="Ellipse 4" d="M555.019 572.182c20.204 11.665 58.832 11.804 71.303 11.519 2.327-.053 4.128-1.093 4.22-2.436.494-7.2.253-29.502-19.951-41.167-15.345-8.86-40.226-8.86-55.572 0-15.345 8.86-15.345 23.225 0 32.084z" fill="#FFB5B5" stroke="#000" stroke-width="2.447" stroke-linecap="round" stroke-linejoin="round"/><path id="Ellipse 5" d="M572.049 562.347c5.94 3.43 15.571 3.43 21.511 0 5.941-3.429 5.941-8.99 0-12.42-5.94-3.429-15.571-3.429-21.511 0-5.941 3.43-5.941 8.991 0 12.42z" fill="#FF8484" stroke="#000" stroke-width="2.447" stroke-linecap="round" stroke-linejoin="round"/><g id="Intersect"><path fill-rule="evenodd" clip-rule="evenodd" d="M593.557 562.346c-5.941 3.43-15.572 3.43-21.512 0-.931-.537-1.717-1.127-2.356-1.753.639-.626 1.425-1.217 2.356-1.754 5.94-3.43 15.571-3.43 21.512 0 .931.537 1.716 1.128 2.356 1.754-.64.626-1.425 1.216-2.356 1.753z" fill="#BDDCD8"/><path d="M572.045 562.346l1.06-.611-1.06.611zm-2.356-1.753l-1.291.439c-.277-.271-.277-.608 0-.879l1.291.44zm26.224 0l1.29-.44c.277.271.277.608 0 .879l-1.29-.439zm-22.808 1.142c5.355 3.091 14.037 3.091 19.392 0l2.119 1.223c-6.525 3.768-17.105 3.768-23.631 0l2.12-1.223zm-2.125-1.582a10.584 10.584 0 002.125 1.582l-2.12 1.223c-1.021-.59-1.884-1.238-2.587-1.926l2.582-.879zm2.125-.702a10.544 10.544 0 00-2.125 1.581l-2.582-.879c.703-.688 1.566-1.336 2.587-1.926l2.12 1.224zm19.392 0c-5.355-3.092-14.037-3.092-19.392 0l-2.12-1.224c6.526-3.767 17.106-3.767 23.631 0l-2.119 1.224zm2.125 1.581a10.573 10.573 0 00-2.125-1.581l2.119-1.224c1.022.59 1.884 1.238 2.587 1.926l-2.581.879zm-2.125.703a10.613 10.613 0 002.125-1.582l2.581.879c-.703.688-1.565 1.336-2.587 1.926l-2.119-1.223z" fill="#000"/></g><g id="Group 1950"><g id="Group 1948" fill="#D6D2CD"><path id="Ellipse 261" d="M441.002 556.082c10.931-1.977 22.5-2.474 33.81-1.454.515.047.861.328.774.625l4.921 9.66-10.395 9.022c-.087.296-.574.496-1.09.453-5.91-.495-17.011 11.093-22.716 12.125l-10.91 1.8c-1.909 3.272-7.091 7.2-11.687 11.684.064.298-.292.575-.808.619l-32.466 2.762c-.516.043-.997-.162-1.066-.461-1.525-6.55-.419-13.217 3.238-19.485 3.757-6.44 10.101-12.275 18.512-17.029 8.411-4.753 18.651-8.29 29.883-10.321z"/><path id="Ellipse 262_2" d="M485.875 590.61c3.087 1.782 3.198 4.608.248 6.311-2.95 1.703-16.091 10.131-19.178 8.349-2.416-1.395-15.823-12.913-21.54-17.856-.571-.494 8.687-9.57 9.543-9.24 8.562 3.301 28.511 11.042 30.927 12.436z"/></g><g id="Group 1945"><g id="Group 1935"><path id="Ellipse 257" d="M485.11 533.908c-5.936-.535-11.618.889-17.072 2.627-1.429.455-2.835.929-4.228 1.399-4.002 1.348-7.889 2.657-11.859 3.375-11.354 2.054-21.742 5.635-30.307 10.475-2.048 1.158-4.057 2.1-6 2.97-.518.231-1.034.459-1.547.686-1.391.614-2.753 1.215-4.027 1.841-3.512 1.725-6.646 3.766-8.725 7.329-1.986 3.404-2.893 8.001-3.127 12.509-.236 4.532.199 9.139 1.027 12.664.177.755.78 1.133 1.148 1.291.417.179.891.244 1.346.205l32.467-2.761c.45-.039.933-.184 1.331-.491.396-.305.859-.926.682-1.756-.654-3.065-.121-6.199 1.634-9.206 1.858-3.185 5.047-6.153 9.397-8.611 4.345-2.456 9.672-4.303 15.556-5.367 2.668-.482 5.002-.373 7.439-.069.85.107 1.747.243 2.684.385 1.67.254 3.47.527 5.37.686a2.89 2.89 0 001.335-.197c.365-.151.954-.505 1.164-1.222l5.474-18.681c.044-.152.062-.328.066-.373l.001-.008c.01-.092.02-.207.03-.336.02-.26.043-.607.066-1.01.046-.805.094-1.85.123-2.887a46.71 46.71 0 00.007-2.891 8.995 8.995 0 00-.094-1.091 2.52 2.52 0 00-.147-.553 1.597 1.597 0 00-.268-.442 1.42 1.42 0 00-.946-.49z" fill="#55A398" stroke="#000" stroke-width="2.7"/><g id="Ellipse 259"><mask id="path-84-outside-1" maskUnits="userSpaceOnUse" x="450.826" y="561.638" width="41" height="33" fill="#000"><path fill="#fff" d="M450.826 561.638h41v33h-41z"/><path d="M487.937 577.83c1.607.927.709 9.861.709 9.861-.017 1.094-.728 2.169-2.142 2.986-2.95 1.703-7.844 1.639-10.931-.144-2.416-1.394-15.823-12.912-21.54-17.855-.127-.111-.176-.226-.165-.334 0 0-.095-7.617.001-7.697.266-.221 3.8 3.59 4.289 3.779 8.562 3.3 27.364 8.009 29.779 9.404z"/></mask><path d="M487.937 577.83c1.607.927.709 9.861.709 9.861-.017 1.094-.728 2.169-2.142 2.986-2.95 1.703-7.844 1.639-10.931-.144-2.416-1.394-15.823-12.912-21.54-17.855-.127-.111-.176-.226-.165-.334 0 0-.095-7.617.001-7.697.266-.221 3.8 3.59 4.289 3.779 8.562 3.3 27.364 8.009 29.779 9.404z" fill="#55A398"/><path d="M487.937 577.83l1.35-2.339-1.35 2.339zm-1.433 12.847l1.35 2.338-1.35-2.338zm-10.931-.144l-1.35 2.339 1.35-2.339zm-21.54-17.855l1.766-2.043-1.766 2.043zm4.125-4.252l.971-2.52-.971 2.52zm30.488 19.265l-2.687-.27-.011.115-.002.115 2.7.04zm-34.777-23.044l1.726 2.077-1.726-2.077zm-.001 7.697l2.686.272.016-.152-.002-.153-2.7.033zm31.286 15.994c-.946.546-2.394.896-4.029.874-1.626-.021-3.144-.406-4.202-1.017l-2.7 4.677c2.029 1.171 4.502 1.709 6.832 1.74 2.321.03 4.795-.44 6.799-1.597l-2.7-4.677zm-8.231-.143c-.385-.222-1.498-1.052-3.241-2.45a365.467 365.467 0 01-5.904-4.876 1213.644 1213.644 0 01-11.979-10.234l-3.532 4.085c2.862 2.474 7.654 6.599 12.037 10.283a362.79 362.79 0 005.998 4.953c1.63 1.308 3.099 2.441 3.921 2.916l2.7-4.677zm-19.736-17.25c4.413 1.701 11.383 3.739 17.412 5.49 3.048.886 5.865 1.7 8.075 2.381a75.92 75.92 0 012.743.891c.356.126.64.233.856.321.234.096.319.143.314.14l2.7-4.677c-.547-.315-1.329-.614-2.074-.877a80.46 80.46 0 00-2.949-.958c-2.262-.698-5.133-1.528-8.158-2.406-6.116-1.777-12.828-3.744-16.977-5.344l-1.942 5.039zm29.4 9.223c-.607-.351-.734-.822-.675-.672.026.067.085.27.142.657.112.761.151 1.801.14 2.928a52.093 52.093 0 01-.127 3.013 55.394 55.394 0 01-.106 1.31l-.002.015v.003l2.687.269 2.686.27v-.001-.002l.001-.007.002-.023.008-.084.028-.304c.023-.26.053-.628.083-1.072.062-.884.127-2.086.14-3.332.012-1.223-.025-2.59-.197-3.765-.085-.581-.218-1.228-.451-1.828-.2-.516-.65-1.469-1.659-2.052l-2.7 4.677zm-.641 7.483c.001-.048.021-.025-.056.085-.087.123-.296.348-.736.602l2.7 4.677c1.925-1.112 3.456-2.927 3.491-5.283l-5.399-.081zm-30.351-20.927a2.653 2.653 0 01-1.828.611 2.389 2.389 0 01-1.173-.361c-.019-.014.041.028.211.177.316.276.75.69 1.245 1.17.468.455.994.971 1.419 1.37.212.2.432.402.631.57.098.084.219.182.35.276.078.057.359.262.737.408l1.942-5.039c.191.074.323.152.372.182.061.036.101.065.114.074.024.018.019.016-.027-.023-.089-.075-.227-.2-.419-.381-.384-.361-.85-.819-1.359-1.313a42.976 42.976 0 00-1.45-1.36 7.88 7.88 0 00-.736-.581 3.43 3.43 0 00-.689-.369 2.867 2.867 0 00-.896-.193 2.747 2.747 0 00-1.896.629l3.452 4.153zm.204 3.911c.319.276.858.961.755 1.981l-5.372-.544c-.126 1.237.511 2.152 1.085 2.648l3.532-4.085zm-1.931 1.709l2.7-.033v-.001-.001-.004l-.001-.016v-.063a453.237 453.237 0 01-.039-6.326c.003-.357.007-.635.012-.817l.005-.133a.582.582 0 01-.003.036c-.002.017-.006.056-.014.108-.006.037-.025.157-.069.309a2.686 2.686 0 01-.864 1.321l-3.452-4.153a2.708 2.708 0 00-.95 1.688c-.02.124-.028.231-.032.284-.01.123-.015.257-.018.376-.008.249-.012.58-.015.948a457.779 457.779 0 00.027 5.313l.009.868.003.243.001.064V572.377l2.7-.033z" fill="#000" mask="url(#path-84-outside-1)"/></g><path id="Ellipse 257_2" d="M476.465 555.93l.016.001.016.002c.452.037.92-.026 1.335-.197.365-.151.954-.505 1.164-1.222l5.474-18.681c.246-.84-.199-1.506-.608-1.836-.399-.323-.89-.473-1.341-.514a564.935 564.935 0 01-4.732-.451c-8.94-.879-16.309-1.603-25.839.121-11.355 2.053-21.743 5.635-30.307 10.475-8.559 4.837-15.105 10.825-19.014 17.524-3.815 6.54-4.996 13.558-3.387 20.471.176.755.78 1.134 1.147 1.292.417.18.892.246 1.349.207l32.466-2.761c.45-.038.934-.184 1.331-.49.396-.306.86-.927.683-1.756-.655-3.066-.121-6.2 1.633-9.206 1.858-3.185 5.048-6.153 9.397-8.612 2.182-1.232 4.97-2.526 7.765-3.536 2.815-1.017 5.538-1.71 7.617-1.81 4.109-.199 7.673.237 11.108.658.916.112 1.822.223 2.727.321z" fill="#BDDCD8" stroke="#000" stroke-width="2.7"/><path id="Ellipse 260" d="M401.606 561.762l37.751 6.731" stroke="#000" stroke-width="2.7"/><g id="Ellipse 259_2"><mask id="path-88-outside-2" maskUnits="userSpaceOnUse" x="450.873" y="560.677" width="41" height="26" fill="#000"><path fill="#fff" d="M450.873 560.677h41v26h-41z"/><path d="M486.263 576.209c3.087 1.782 3.198 4.608.248 6.311-2.95 1.703-7.844 1.639-10.931-.143-2.416-1.395-15.823-12.913-21.54-17.856-.572-.494.44-1.078 1.296-.748 8.562 3.301 28.511 11.041 30.927 12.436z"/></mask><path d="M486.263 576.209c3.087 1.782 3.198 4.608.248 6.311-2.95 1.703-7.844 1.639-10.931-.143-2.416-1.395-15.823-12.913-21.54-17.856-.572-.494.44-1.078 1.296-.748 8.562 3.301 28.511 11.041 30.927 12.436z" fill="#BDDCD8"/><path d="M486.263 576.209l-1.35 2.338 1.35-2.338zm-10.683 6.168l-1.35 2.338 1.35-2.338zm-21.54-17.856l-1.766 2.043 1.766-2.043zm1.296-.748l.971-2.519-.971 2.519zm29.577 14.774c1.089.629 1.044 1.078 1.04.953-.002-.05.022-.038-.046.064-.08.119-.286.352-.746.618l2.7 4.676c2.009-1.159 3.585-3.091 3.488-5.57-.095-2.409-1.738-4.264-3.736-5.417l-2.7 4.676zm.248 1.635c-.946.546-2.395.895-4.029.874-1.626-.022-3.144-.407-4.202-1.017l-2.7 4.676c2.029 1.172 4.501 1.71 6.831 1.74 2.322.031 4.796-.44 6.8-1.597l-2.7-4.676zm-8.231-.143c-.386-.223-1.498-1.052-3.241-2.451a351.435 351.435 0 01-5.904-4.875c-4.354-3.66-9.124-7.765-11.979-10.234l-3.532 4.085a1207.6 1207.6 0 0012.037 10.283 362.79 362.79 0 005.998 4.953c1.629 1.307 3.099 2.441 3.921 2.915l2.7-4.676zm-22.565-13.746a2133.41 2133.41 0 0117.744 6.923 603.001 603.001 0 018.471 3.419c2.418 1.005 3.918 1.673 4.333 1.912l2.7-4.676c-.794-.458-2.692-1.28-4.962-2.223a615.89 615.89 0 00-8.552-3.452 2111.734 2111.734 0 00-17.792-6.942l-1.942 5.039zm1.441-3.814c.377.326.968 1.153.704 2.284-.21.9-.822 1.306-1.008 1.413-.419.242-.805.245-1.137.117l1.942-5.039c-1.189-.458-2.509-.329-3.505.246-.474.273-1.285.897-1.551 2.036-.319 1.369.36 2.454 1.023 3.028l3.532-4.085z" fill="#000" mask="url(#path-88-outside-2)"/></g></g><path id="Vector 469" d="M478.706 555.912l6.3-21.6.9 9-6.3 18.901-1.8 1.8v-8.101h.9z" fill="#000"/></g></g></g></g></g><defs><clipPath id="clip0"><path fill="#fff" d="M0 0h748.279v748.279H0z"/></clipPath></defs></svg>